<?xml version="1.0" encoding="UTF-8" standalone="no"?> <!-- Created with Vectornator for iOS (http://vectornator.io/) --><!DOCTYPE svg PUBLIC "-//W3C//DTD SVG 1.1//EN" "http://www.w3.org/Graphics/SVG/1.1/DTD/svg11.dtd">
<svg height="100%" style="fill-rule:nonzero;clip-rule:evenodd;stroke-linecap:round;stroke-linejoin:round;" xmlns:xlink="http://www.w3.org/1999/xlink" xmlns="http://www.w3.org/2000/svg" xml:space="preserve" width="100%" xmlns:vectornator="http://vectornator.io" version="1.1" viewBox="0 0 1024 1024">
<metadata>
<vectornator:setting key="DimensionsVisible" value="1"/>
<vectornator:setting key="PencilOnly" value="0"/>
<vectornator:setting key="SnapToPoints" value="0"/>
<vectornator:setting key="GuidesVisible" value="1"/>
<vectornator:setting key="CMYKEnabledKey" value="0"/>
<vectornator:setting key="OutlineMode" value="0"/>
<vectornator:setting key="SnapToEdges" value="0"/>
<vectornator:setting key="RulersVisible" value="1"/>
<vectornator:setting key="DisplayWhiteBackground" value="0"/>
<vectornator:setting key="doHistoryDisabled" value="0"/>
<vectornator:setting key="TimeLapseWatermarkDisabled" value="0"/>
<vectornator:setting key="SnapToGuides" value="1"/>
<vectornator:setting key="Units" value="Pixels"/>
<vectornator:setting key="SnapToGrid" value="0"/>
<vectornator:setting key="DynamicGuides" value="0"/>
<vectornator:setting key="IsolateActiveLayer" value="0"/>
</metadata>
<defs/>
<g id="Capa 1" vectornator:layerName="Capa 1">
<g opacity="1">
<path d="M495.004+1.76465C477.091+6.69002+461.201+19.7806+446.243+31.8861C404.559+65.5866+360.089+95.4891+314.146+122.622C268.055+149.843+220.492+174.295+172.335+197.368C148.151+208.959+123.808+220.189+99.4013+231.265C87.198+236.804+74.9735+242.287+62.7383+247.771C56.6261+250.507+50.5138+253.243+44.391+255.969C39.0626+258.344+33.7978+259.329+36.4884+266.214C38.999+272.638+43.2045+278.253+48.3104+282.708C59.0731+292.088+72.9396+296.587+85.8421+301.797C110.651+311.823+135.227+322.439+159.56+333.626C208.225+356.009+255.894+380.712+302.367+407.616C348.839+434.519+394.125+463.623+438.002+494.828C447.652+501.69+457.239+508.662+466.762+515.722C480.756+526.109+495.904+537.186+513.139+537.175C529.675+537.175+544.357+526.963+557.98+517.287C693.509+420.991+837.958+338.124+988.73+270.187C964.175+242.813+928.943+229.131+895.468+215.099C780.32+166.819+670.893+103.972+570.416+28.4164C551.868+14.4721+531.762-0.566702+508.838-0.238343C504.093-0.194562+499.485+0.527827+495.004+1.76465ZM542.196+75.4811C554.802+78.8741+564.972+82.9239+589.866+93.8692C610.522+102.954+663.7+129.879+684.674+141.81C762.111+185.7+815.076+220.397+843.996+246.009C858.191+258.486+860.733+265.382+854.695+275.123C842.301+295.481+798.975+328.427+721.751+376.039C672.598+406.466+605.226+441.82+566.561+457.362C542.726+467.103+537.429+468.307+521.54+468.198C508.298+468.198+506.391+467.869+495.057+464.257C462.006+453.859+432.345+440.725+372.176+409.969C336.477+391.8+319.104+382.277+281.604+360.058C210.63+318.138+169.846+288.148+163.914+273.591C162.537+270.088+162.537+269.431+164.443+265.601C174.507+245.242+211.583+218.864+298.553+170.158C309.676+164.028+327.049+154.178+337.218+148.267C414.019+104.158+457.345+83.5806+489.76+75.5906C505.12+71.8692+505.65+71.7597+519.421+72.1975C528.213+72.5259+534.569+73.4015+542.196+75.4811Z" opacity="1" fill="#000000"/>
<path d="M483.404+95.0732C473.023+98.4662+468.468+100.327+441.561+112.148C429.167+117.511+378.32+143.342+356.286+155.382C330.862+169.282+287.112+195.004+272.6+204.635C249.719+219.74+220.375+240.755+212.536+247.541C202.685+256.078+194.21+266.367+194.21+269.76C194.21+272.387+199.507+279.611+204.909+284.427C211.583+290.228+232.875+305.223+255.121+319.561C309.464+354.586+378.108+393.223+432.557+419.491C488.701+446.526+506.285+452.655+522.493+451.014C529.908+450.248+546.751+444.775+557.874+439.521C561.476+437.77+572.069+432.845+581.391+428.466C621.327+409.969+657.344+389.392+722.28+348.347C727.577+345.063+739.653+337.511+749.293+331.601C768.89+319.451+800.352+298.436+810.098+290.884C823.339+280.596+832.979+269.213+832.979+263.959C832.979+261.551+819.526+248.964+808.509+240.974C785.098+224.227+729.378+189.203+699.505+172.675C695.162+170.158+684.463+164.138+675.67+159.213C634.781+136.118+571.857+106.018+542.196+95.4015C533.086+92.2274+531.709+92.0085+513.595+91.6801L494.527+91.3518L483.404+95.0732ZM519.633+127.471C525.989+135.571+535.099+149.252+540.501+158.884C549.188+173.989+560.099+201.79+558.192+203.76C557.874+204.198+552.048+204.745+545.268+204.964L532.98+205.511L533.51+219.302C533.722+226.854+534.675+240.208+535.628+248.964C536.582+257.72+537.535+270.526+537.641+277.422L537.959+290.009L515.29+290.337L492.62+290.556L493.362+284.317C493.785+280.815+494.739+272.058+495.586+264.834C496.434+257.611+497.811+245.79+498.764+238.566C500.989+221.382+502.26+209.123+501.836+208.576C501.095+207.81+481.921+203.103+479.167+202.994C474.612+202.884+473.658+201.68+475.035+197.63C476.942+192.048+506.073+132.068+509.887+126.048C511.688+123.093+513.489+120.904+514.018+121.123C514.548+121.342+517.09+124.188+519.633+127.471ZM417.726+206.496C431.286+214.377+445.269+225.869+445.269+229.153C445.269+230.466+425.883+235.501+411.265+237.909C400.671+239.66+382.027+245.461+374.612+249.183C371.01+251.043+366.032+254.436+363.595+256.735C359.358+260.785+359.252+261.223+359.782+266.038C360.947+277.203+373.235+284.864+399.718+291.103C422.917+296.466+429.379+297.232+462.747+299.312C504.379+301.83+586.476+299.422+610.31+294.934C651.73+287.272+662.535+283.989+670.691+276.984C673.446+274.466+674.081+273.153+674.081+269.65C674.081+264.068+672.069+260.237+666.772+255.203C657.132+246.227+641.772+240.864+630.12+242.506C622.175+243.491+612.747+245.461+611.476+246.337C610.946+246.665+607.344+247.869+603.637+248.964C597.387+250.825+596.751+250.825+596.327+249.183C595.374+246.118+590.395+220.068+590.395+218.426C590.395+215.033+651.518+220.506+660.84+224.775C667.937+228.058+688.488+242.944+696.221+250.606C703.001+257.173+713.276+271.073+713.276+273.591C713.276+275.67+700.988+287.053+692.407+293.073C679.06+302.377+653.425+312.337+628.531+318.029C600.671+324.267+581.921+325.581+520.48+325.581C458.298+325.581+433.086+323.939+391.243+317.481C346.964+310.695+313.384+296.247+299.506+278.188C294.634+271.949+294.845+268.665+300.354+259.909C314.231+238.019+344.527+216.128+373.235+207.262C393.68+200.914+407.663+200.586+417.726+206.496ZM531.603+340.138L536.9+341.451L537.217+374.397L537.429+407.451L523.128+408.218C515.29+408.655+502.79+408.655+495.48+408.218L482.027+407.451L482.768+393.004C483.192+385.123+484.146+370.785+485.099+361.153C486.9+341.451+487.324+340.466+495.057+338.715C501.095+337.402+524.612+338.277+531.603+340.138Z" opacity="1" fill="#000000"/>
<path d="M1005.82+284.799C907.513+343.444+809.208+402.088+710.903+460.744C652.545+495.561+592.577+531.812+551.794+587.239C540.141+603.077+529.929+621.3+529.4+641.177C528.87+661.065+540.893+682.419+559.813+686.086C546.444+703.937+534.792+724.131+532.101+746.525C529.41+768.919+537.461+793.82+556.116+805.564C545.152+822.026+535.469+840.326+534.082+860.258C532.683+880.189+541.465+902.003+559.039+910.354C557.122+909.446+545.819+936.623+544.897+939.25C541.126+949.911+538.626+961.053+537.482+972.337C535.565+991.13+536.285+1013.87+556.561+1021.36C567.715+1025.48+580.077+1023.66+591.539+1020.62C626.942+1011.23+659.41+990.375+683.234+961.731C653.086+979.671+621.168+994.436+588.149+1005.73C578.997+1008.86+568.171+1011.49+560.363+1005.63C553.933+1000.81+551.984+991.853+551.391+983.655C549.251+954.146+558.912+923.905+577.641+901.521C558.531+893.728+548.446+870.579+549.855+849.4C551.264+828.221+561.91+808.892+574.082+791.795C553.647+784.713+543.732+759.123+546.868+737.091C550.003+715.058+562.969+696.002+576.168+678.391C554.188+672.984+542.546+645.73+546.592+622.767C550.639+599.804+566.222+580.912+582.747+564.987C619.293+529.776+662.852+503.474+706.02+477.479C801.846+419.765+897.661+362.05+993.487+304.325C1000.61+300.056+1008.87+292.712+1005.82+284.799Z" opacity="1" fill="#000000"/>
<path d="M1023.79+686.852C1022.32+674.002+1016.35+661.502+1006.03+654.322C1003.64+652.659+1000.84+651.028+1000+648.171C999.112+645.117+1000.84+641.976+1002.43+639.24C1010.81+624.89+1017.4+608.954+1018.19+592.219C1018.97+575.472+1013.23+557.818+1000.56+547.343C998.317+545.482+995.722+543.633+994.991+540.754C994.144+537.394+996.178+534.056+998.01+531.133C1008.71+514.168+1015.8+494.773+1018.62+474.732C1020.96+458.227+1019.45+439.105+1007.06+428.423C995.362+418.342+978.021+419.404+963.508+424.165C948.996+428.926+935.341+436.851+920.256+439.018C917.735+439.379+915.034+439.554+912.767+438.339C909.695+436.697+908.254+432.998+907.513+429.495C903.498+410.418+913.413+390.661+927.29+377.418C941.167+364.174+958.667+355.877+975.129+346.3C991.591+336.723+1007.89+324.979+1016.69+307.696C975.606+326.642+932.502+347.263+906.612+385.276C898.879+396.638+892.809+409.728+892.248+423.607C891.686+437.398+897.841+452.393+910.087+457.909C924.536+464.422+940.786+456.059+954.97+448.934C969.154+441.82+987.491+436.27+999.504+446.822C1010.05+456.092+1009.74+472.992+1006.44+486.892C1003.65+498.702+999.048+509.998+993.243+520.56C990.394+525.759+987.258+530.772+983.9+535.643C980.817+540.108+975.426+544.99+973.413+549.915C980.139+552.444+986.337+553.265+991.824+558.617C997.237+563.892+1001.09+570.952+1002.69+578.45C1005.83+593.149+1001.68+608.538+995.404+622.121C989.123+635.704+980.743+648.16+974.599+661.809C991.707+662.345+1005.12+679.595+1006.74+697.206C1008.36+714.806+1000.75+732.012+990.987+746.536C968.084+780.576+933.572+803.999+899.917+826.568C895.383+829.611+890.839+832.654+886.305+835.697C883.233+837.754+877.036+840.217+875.818+844.059C872.576+854.26+889.494+843.84+892.153+842.417C907.809+834.044+923.18+825.058+937.852+814.955C966.601+795.144+993.063+770.572+1010.23+739.203C1010.9+737.988+1012.97+735.361+1012.97+733.993C1019.49+721.012+1024.4+706.75+1024.13+692.127C1024.12+690.398+1024+688.625+1023.79+686.852Z" opacity="1" fill="#000000"/>
<path d="M25.0372+313.979C13.5966+318.357+8.29999+323.83+4.48645+335.103C2.68561+340.357+2.15595+346.267+1.09663+368.267C-0.174553+398.914-0.174553+426.606+1.09663+558.168C2.15595+660.397+1.73222+652.297+8.29999+684.367C12.6432+705.929+24.4016+734.496+36.5838+753.541C44.3168+765.472+60.9481+783.969+71.2235+791.74C84.359+801.7+160.1+847.233+212.219+876.457C239.655+891.78+259.358+903.929+282.134+919.362C301.943+932.825+313.595+940.158+327.155+947.82C356.074+964.128+371.116+973.213+391.349+986.347C424.612+1007.8+437.959+1013.93+453.319+1014.91C464.972+1015.57+471.434+1013.38+478.213+1006.38C484.781+999.591+488.171+992.367+491.879+977.591C497.175+955.919+497.387+947.382+496.857+818.666C496.434+686.009+496.01+676.486+490.184+638.616C485.099+606.108+470.798+576.009+449.612+553.024C431.709+533.541+415.926+522.049+364.76+491.402C356.922+486.695+332.133+471.7+309.676+458.019C255.545+425.073+182.028+381.183+161.371+369.581C157.558+367.501+154.062+365.422+153.427+364.984C147.918+360.715+86.1599+327.223+68.6811+318.904C51.6261+310.914+37.4312+309.272+25.0372+313.979ZM63.2786+328.317C73.2362+331.71+105.439+348.566+138.066+367.501C140.079+368.705+147.071+372.755+153.532+376.476C179.909+391.8+202.049+405.7+223.024+420.148L234.464+427.919L230.439+431.75C225.248+436.675+193.575+463.929+181.604+473.78C176.626+477.939+169.952+482.536+166.986+483.959C159.782+487.352+144.634+490.526+130.651+491.402C124.507+491.73+106.181+493.81+89.8675+495.999C59.9947+499.83+23.3423+501.909+14.8678+500.267L10.9483+499.501L10.8424+491.621C10.8424+487.243+10.4186+480.019+9.88897+475.531C8.08813+460.317+6.39322+365.312+7.77033+357.322C9.9949+343.969+18.8932+332.476+30.3338+327.879C38.5965+324.596+52.7913+324.815+63.2786+328.317ZM281.074+452.218C306.922+466.118+348.023+490.964+399.4+523.69C427.154+541.203+445.057+556.636+457.133+572.944C467.938+587.72+479.379+616.397+482.239+636.317C484.993+655.362+485.523+660.616+486.794+690.606C488.383+727.054+488.489+748.835+487.218+774.118L486.264+791.959L483.086+788.895C478.425+784.188+457.133+758.904+446.222+744.785C440.925+737.889+423.235+713.919+407.133+691.7C375.46+647.919+363.807+632.705+348.023+613.989C330.862+593.85+326.837+587.72+314.019+562.874C307.239+549.521+305.545+546.457+291.879+521.501C274.401+489.651+258.193+455.063+254.062+440.725L253.426+438.317L259.57+441.053C262.96+442.586+272.6+447.621+281.074+452.218ZM239.655+459.66C240.397+462.616+241.244+469.511+241.562+474.874L242.197+484.506L239.125+482.864C236.795+481.66+223.659+471.81+219.74+468.307C219.528+468.088+223.13+464.257+227.685+459.77C237.007+450.685+237.642+450.685+239.655+459.66ZM258.087+477.72C262.43+493.481+262.43+493.044+259.57+493.044C258.193+493.044+255.439+492.496+253.532+491.84C250.142+490.636+250.142+490.417+250.778+485.601C251.096+482.864+251.413+476.407+251.413+471.262L251.413+461.85L253.532+465.133C254.591+466.884+256.71+472.576+258.087+477.72ZM207.558+490.526C207.028+496.108+201.308+510.556+199.719+510.556C198.13+510.556+188.702+495.342+189.443+494.029C190.397+492.606+205.015+484.287+206.816+484.287C207.981+484.287+208.087+485.601+207.558+490.526ZM241.35+501.253C241.774+505.74+241.88+510.665+241.456+512.088C240.82+514.715+240.714+514.825+236.265+513.183C225.46+509.352+220.058+504.317+218.892+497.093L218.257+493.044L229.486+493.044L240.608+493.044L241.35+501.253ZM128.956+498.626C133.935+499.939+141.986+505.959+140.503+507.272C139.549+508.258+133.088+508.695+124.719+508.476C119.422+508.367+119.317+508.258+118.151+504.098C117.41+501.8+116.88+499.392+116.88+498.626C116.88+497.093+123.024+497.093+128.956+498.626ZM261.477+514.277C267.409+520.188+268.468+522.049+270.481+528.944C271.752+533.322+272.6+537.153+272.282+537.481C271.54+538.357+260.1+530.695+255.969+526.646C252.473+523.253+251.837+521.282+251.096+510.884C250.672+505.521+250.778+505.302+252.685+506.287C253.85+506.944+257.769+510.447+261.477+514.277ZM190.82+515.591C199.189+521.611+197.494+537.262+187.748+542.297C183.829+544.377+182.77+544.596+179.274+543.501C175.566+542.297+163.49+532.228+163.49+530.258C163.49+528.178+184.253+513.949+187.325+513.84C187.96+513.84+189.549+514.606+190.82+515.591ZM124.613+518.874C126.52+519.86+128.321+521.282+128.744+521.939C130.439+524.457+129.486+528.068+126.944+529.82C123.342+532.228+109.677+531.352+99.931+528.178C93.4691+526.098+85.1005+520.407+85.1005+518.108C85.1005+517.561+92.7276+517.123+103.109+517.123C117.833+517.123+121.859+517.452+124.613+518.874ZM157.134+526.974L157.134+534.636L151.626+534.526C148.554+534.417+144.74+534.088+143.151+533.651C140.291+532.994+140.185+532.994+141.88+529.71C144.846+523.69+149.825+519.312+153.638+519.312L157.134+519.312L157.134+526.974ZM232.981+523.034C236.053+524.457+239.231+526.864+240.185+528.287C242.303+531.68+243.469+542.407+242.515+550.287C241.668+557.183+242.939+557.073+226.943+551.929C221.329+550.178+214.337+547.113+211.583+545.253L206.392+541.75L206.075+534.855C205.757+528.068+205.863+527.85+210.1+523.471L214.337+518.984L220.905+519.75C224.507+520.078+229.909+521.611+232.981+523.034ZM21.5415+528.835C25.7787+533.541+36.6897+546.894+45.7998+558.715C61.2659+578.526+70.2701+590.785+100.143+632.158C106.287+640.805+120.482+659.083+131.499+672.765C159.782+707.79+174.719+731.979+199.401+782.546C213.384+811.223+222.706+831.362+227.367+843.293C231.18+853.253+238.702+875.034+238.702+876.347C238.702+877.88+235.206+876.457+221.117+869.452C210.1+863.979+185.842+850.079+168.257+839.243C109.889+803.233+72.2828+777.84+59.9947+766.128C47.6007+754.417+36.5838+738.108+25.9906+715.78C20.0584+703.412+16.6686+693.452+13.9144+680.208C11.9017+670.576+11.6898+665.103+11.2661+600.964C10.7364+535.183+11.0542+520.407+13.0669+520.407C13.4906+520.407+17.3042+524.238+21.5415+528.835ZM73.9777+532.556C86.4777+535.402+106.287+541.422+106.287+542.407C106.287+542.845+105.122+546.457+103.639+550.397C102.156+554.447+100.99+559.81+100.99+562.437C100.99+565.064+103.109+573.929+105.757+582.357C108.406+590.675+110.524+598.009+110.524+598.556C110.524+602.934+63.7023+561.67+51.838+546.785C49.7193+544.158+48.1303+541.86+48.3422+541.641C48.9778+540.984+60.4184+546.019+75.1429+553.352C82.5582+556.964+89.02+559.7+89.7615+559.481C91.6683+558.715+82.5582+550.616+69.6345+541.641C63.0667+537.044+56.8167+532.337+55.7574+531.133C53.8507+528.835+53.8507+528.835+59.1472+529.601C62.1133+530.039+68.787+531.352+73.9777+532.556ZM264.019+545.143C275.672+554.118+282.134+564.626+287.43+582.576C288.701+586.954+289.549+590.894+289.125+591.223C288.172+592.208+275.672+585.312+268.363+579.621C264.549+576.666+259.146+571.74+256.392+568.675L251.413+563.203L251.413+549.959L251.413+536.715L254.38+538.357C255.969+539.233+260.312+542.297+264.019+545.143ZM137.537+549.083C137.113+550.506+135.206+555.322+133.3+559.81C127.897+572.506+127.05+577.869+128.956+585.75C129.91+589.362+131.922+595.272+133.405+598.775C137.855+609.064+139.126+614.536+139.126+623.292L139.126+631.501L135.418+627.123C125.566+615.412+118.257+601.292+116.244+590.019C113.384+575.024+115.185+555.651+119.74+550.944C121.753+548.755+128.321+547.004+134.677+546.785C137.855+546.675+138.172+546.894+137.537+549.083ZM174.295+553.899C178.85+556.307+179.698+558.934+178.321+566.158C177.685+569.551+176.202+574.805+175.143+577.869C172.918+584.218+166.668+598.118+166.032+598.118C165.821+598.118+161.689+595.491+156.922+592.208C146.647+585.422+140.185+578.964+140.185+575.79C140.185+572.068+146.011+560.466+150.249+555.541C152.473+553.024+155.651+550.616+157.558+550.178C160.948+549.193+168.681+550.944+174.295+553.899ZM219.104+563.641C228.532+566.158+238.702+571.74+241.562+576.118C243.892+579.73+243.998+580.606+243.998+605.889C243.998+628.108+243.68+632.596+242.197+635.879C241.244+637.959+240.079+639.71+239.761+639.71C237.536+639.71+222.812+633.8+216.668+630.407C206.922+625.153+191.35+612.785+187.113+606.984C182.876+601.292+182.664+597.243+185.842+586.516C189.02+575.68+192.304+569.551+197.494+564.845C201.731+560.795+202.155+560.685+207.346+561.342C210.312+561.67+215.609+562.765+219.104+563.641ZM266.138+589.69C275.884+594.725+289.549+610.268+297.282+625.481C304.803+639.82+309.358+656.566+310.417+672.765L311.053+683.491L306.922+681.74C296.54+677.253+277.367+666.745+270.375+661.601C253.532+649.233+252.896+648.138+251.943+627.561C251.519+618.695+251.519+605.78+251.943+598.666L252.685+585.86L257.028+586.516C259.464+586.954+263.596+588.377+266.138+589.69ZM303.956+593.193C311.689+598.775+317.727+607.312+320.693+617.273C321.858+621.322+323.129+633.143+322.282+633.143C321.964+633.143+318.68+631.173+315.184+628.765C305.227+621.87+300.884+614.974+298.447+601.73C296.752+592.536+296.54+589.362+297.706+589.362C298.129+589.362+300.99+591.113+303.956+593.193ZM114.973+614.098C118.893+617.382+123.554+622.307+125.355+624.934C128.427+629.531+134.465+645.183+133.194+645.183C131.393+645.183+121.435+636.865+113.702+628.874C105.545+620.337+96.753+607.422+96.753+603.919C96.753+601.73+106.817+607.312+114.973+614.098ZM159.041+604.029C163.278+604.904+166.88+605.78+167.092+605.889C167.41+606.437+171.011+623.292+175.672+646.168C177.685+656.019+179.592+664.994+180.015+666.198C180.545+668.059+180.333+668.168+178.426+667.074C173.66+664.447+161.795+651.969+157.134+644.417C154.38+640.148+150.884+633.472+149.401+629.641C146.965+623.183+143.363+608.188+143.363+604.138C143.363+602.059+148.554+601.949+159.041+604.029ZM212.96+639.929C232.664+651.422+239.337+656.238+242.303+661.601C244.316+665.103+244.528+667.511+244.846+688.417C245.058+701.004+244.74+714.685+244.316+718.845L243.469+726.178L234.782+721.034C218.575+711.621+208.829+701.661+198.765+684.258C189.973+669.263+182.558+643.322+182.558+627.999L182.558+623.292L189.231+626.685C192.833+628.546+203.532+634.566+212.96+639.929ZM334.994+631.392C341.138+634.785+348.341+645.621+350.672+654.924L351.307+657.661L347.176+655.034C338.383+649.671+335.311+645.074+331.498+632.268C330.544+629.422+331.074+629.312+334.994+631.392ZM330.227+652.297C338.913+661.054+346.434+678.238+350.566+698.049C352.79+708.994+352.896+708.775+346.646+706.367C343.68+705.163+339.443+703.302+337.324+702.208C325.354+695.86+317.303+679.332+315.078+656.347C313.278+639.054+312.96+640.148+319.422+643.76C322.388+645.402+327.261+649.342+330.227+652.297ZM155.969+656.894C157.876+658.427+160.1+661.273+160.842+663.133C162.643+667.73+163.914+679.113+162.643+679.113C162.007+679.113+159.147+677.143+156.287+674.845C150.778+670.357+148.342+665.432+147.177+656.894C146.647+652.735+146.753+652.626+149.507+653.392C151.096+653.83+153.956+655.362+155.969+656.894ZM137.431+657.551C140.397+659.521+145.799+675.83+143.575+675.83C141.562+675.83+133.194+669.153+131.499+666.198C130.439+664.447+129.38+661.054+128.956+658.536L128.321+654.049L131.711+655.034C133.617+655.581+136.16+656.785+137.431+657.551ZM378.002+679.332C388.807+691.153+403.637+710.526+402.684+711.511C401.625+712.606+383.193+698.924+377.684+692.904C372.599+687.322+366.667+676.486+364.231+668.387C363.595+666.088+363.701+665.87+365.608+666.964C366.773+667.621+372.282+673.203+378.002+679.332ZM268.892+674.407C278.214+679.88+307.769+700.019+311.477+703.521C313.384+705.273+313.595+706.148+312.748+708.447C310.1+715.671+297.6+742.596+296.54+743.581C295.693+744.347+292.197+744.019+285.735+742.705C280.545+741.611+271.752+739.86+266.138+738.765L255.969+736.904L254.274+721.472C251.943+701.661+251.943+681.959+254.168+674.079C256.18+666.964+256.074+666.964+268.892+674.407ZM185.524+685.352C189.973+688.745+193.257+694.327+196.011+702.646C198.553+710.307+201.096+723.77+200.248+724.755C199.189+725.74+192.939+721.143+187.643+715.561C180.545+708.009+175.143+694.437+175.143+683.71L175.143+679.004L178.638+680.865C180.439+681.85+183.617+683.82+185.524+685.352ZM363.913+686.009C369.845+691.919+372.388+696.845+375.354+707.681C379.591+723.661+377.472+747.631+371.116+756.059C368.468+759.452+360.947+762.626+356.498+762.079L353.108+761.75L357.451+749.163C364.76+727.929+364.972+727.054+364.443+720.705C364.125+717.422+362.324+708.994+360.205+702.098C358.193+695.203+356.18+687.103+355.862+684.258C355.121+679.332+355.227+679.004+357.027+679.989C358.087+680.646+361.159+683.382+363.913+686.009ZM342.303+713.591C350.46+717.75+357.239+721.581+357.239+721.909C357.451+724.098+342.833+747.084+339.125+750.477L334.57+754.636L323.341+754.636L312.112+754.636L313.066+747.74C315.29+730.009+323.553+704.397+326.519+705.601C327.049+705.82+334.146+709.322+342.303+713.591ZM217.939+719.283C228.638+726.506+243.151+741.83+245.587+748.397C247.388+753.432+247.388+754.198+245.799+763.611C244.846+769.193+243.574+774.118+243.045+774.666C241.668+776.089+231.922+768.536+223.765+759.999C214.655+750.477+208.935+736.686+207.452+720.268C206.604+711.402+206.287+711.402+217.939+719.283ZM400.989+724.208C407.027+729.133+416.455+737.78+421.964+743.581C431.286+753.213+431.815+753.979+429.379+754.417C427.896+754.526+421.01+752.775+414.019+750.367C407.133+747.959+401.201+746.098+400.989+746.317C399.93+747.521+414.866+759.452+423.764+764.377C429.485+767.661+436.264+771.492+438.913+773.024C445.692+776.964+451.625+781.89+451.625+783.75C451.625+784.735+451.201+785.173+450.671+784.845C450.141+784.516+445.057+783.641+439.336+782.984C421.222+780.904+405.015+776.198+388.383+768.098C384.146+766.128+380.65+763.939+380.65+763.392C380.65+762.735+382.557+758.357+384.993+753.541C387.324+748.725+389.548+743.143+389.866+741.173C390.184+739.203+389.443+732.745+388.171+726.944C385.311+713.482+385.311+712.606+388.065+714.138C389.231+714.795+395.057+719.283+400.989+724.208ZM273.447+753.213C276.519+754.198+281.498+756.496+284.57+758.357L290.079+761.86L289.973+768.098C289.761+776.636+286.053+784.297+280.968+786.049C279.062+786.815+272.494+787.362+266.668+787.362L255.969+787.472L255.227+784.079C254.909+782.218+254.591+773.681+254.591+765.253L254.591+749.929L261.265+750.695C264.867+751.133+270.375+752.228+273.447+753.213ZM321.964+769.084C321.117+777.84+317.833+784.845+313.595+787.143C309.358+789.332+297.6+790.427+296.434+788.676C295.587+787.143+298.659+773.133+300.778+768.646C303.108+764.049+306.816+762.626+316.985+762.407L322.706+762.297L321.964+769.084ZM229.062+777.183C238.702+782.984+242.621+788.347+246.223+801.372C247.388+805.86+247.706+808.268+246.964+808.268C246.329+808.268+242.303+806.516+237.96+804.327C228.003+799.402+224.507+793.71+222.07+778.387C221.329+773.462+222.388+773.243+229.062+777.183ZM382.239+778.278C390.714+780.029+407.239+785.501+415.078+789.223L420.375+791.631L415.608+792.178C404.591+793.71+390.502+794.039+375.46+793.382L359.464+792.616L359.464+783.86L359.464+775.103L367.197+775.87C371.328+776.307+378.214+777.402+382.239+778.278ZM362.854+801.81C372.388+805.86+372.493+806.845+363.595+807.72C359.252+808.049+350.883+808.268+344.845+808.049L333.934+807.72L336.371+803.89C337.748+801.81+339.972+799.73+341.455+799.293C345.799+797.979+356.922+799.293+362.854+801.81ZM270.163+803.452C271.54+805.203+273.871+808.924+275.248+811.77C278.426+817.899+278.108+818.118+265.926+818.118C255.227+818.118+252.473+816.148+252.473+808.596C252.473+801.591+255.333+799.074+262.324+799.84C266.668+800.168+268.257+800.934+270.163+803.452ZM490.078+820.855C491.667+851.939+489.018+954.278+486.264+966.427C484.04+976.497+479.696+984.706+473.87+990.397C461.264+1002.55+449.612+1002.98+427.154+992.258C401.731+980.109+339.443+943.77+298.553+917.392C281.18+906.118+258.193+889.591+255.757+886.636C254.591+885.213+256.498+882.696+268.998+869.342C277.155+860.696+289.019+848.437+295.375+842.089C309.252+828.298+313.489+826.108+330.862+824.686C341.032+823.81+350.142+822.497+368.998+819.322C372.811+818.666+380.438+817.681+385.947+817.024C396.01+815.82+415.608+811.88+425.671+808.924C438.171+805.312+448.976+804.218+472.811+804.327L489.23+804.437L490.078+820.855ZM241.562+820.745C244.528+824.357+245.481+832.785+244.528+846.357L243.786+856.974L239.655+848.656C234.994+838.914+231.816+829.611+230.757+822.059L230.015+816.696L234.676+817.352C237.748+817.79+239.973+818.885+241.562+820.745ZM269.74+835.193C273.024+835.521+275.778+836.397+275.778+836.944C275.778+840.447+256.604+863.213+255.015+861.681C254.697+861.243+254.062+854.676+253.744+847.014L253.214+833.223L258.405+833.88C261.265+834.208+266.35+834.755+269.74+835.193Z" opacity="1" fill="#000000"/>
<path d="M44.8465+363.889C43.6812+366.735+43.6812+368.486+44.7405+372.536C46.4354+379.432+48.5541+380.964+57.7701+381.73C67.5159+382.496+74.5074+384.685+81.9226+389.282C89.6556+394.098+93.5751+400.009+94.5285+408.655C95.4819+416.755+95.1641+416.755+85.3124+411.611C73.0243+405.153+63.1727+401.979+54.4863+401.869C46.8592+401.76+46.7532+401.76+43.1515+405.81C39.8677+409.531+39.5499+410.407+39.5499+417.083C39.5499+433.063+51.9439+450.248+70.0582+459.332C78.215+463.382+80.1217+464.039+86.6895+464.039C90.8209+464.039+95.1641+463.601+96.5412+463.163C98.6598+462.287+98.8717+462.616+98.8717+465.899C98.8717+467.869+99.5073+470.606+100.355+471.81C102.261+474.546+116.35+481.442+118.469+480.566C119.846+480.128+120.058+475.422+120.058+450.357C120.058+407.342+118.151+400.009+103.639+385.889C90.609+373.412+67.7277+362.138+52.6854+360.934L46.2236+360.387L44.8465+363.889ZM85.1005+426.277L94.1047+430.546L94.4225+438.317C94.7403+445.76+94.6344+446.088+91.9861+447.073C81.7107+451.123+67.6218+444.009+65.0794+433.392C64.4438+430.655+64.126+427.262+64.5498+425.73C66.0328+419.601+71.2235+419.71+85.1005+426.277Z" opacity="1" fill="#000000"/>
<path d="M370.057+547.989C367.832+549.412+365.184+552.914+363.489+556.417C360.629+562.108+360.523+563.203+360.523+577.213C360.523+593.302+361.9+599.979+367.515+611.472C376.625+630.078+394.527+646.825+416.985+657.77C429.273+663.79+436.582+665.87+437.959+663.68C439.336+661.382+439.125+650.218+437.642+648.138C436.9+647.153+433.192+645.292+429.379+644.198C425.565+643.103+420.269+641.133+417.409+639.82C405.438+634.457+391.879+622.088+388.065+613.113C385.947+607.969+384.358+598.118+385.629+598.118C386.794+598.118+392.303+601.621+413.489+615.521C434.04+628.984+439.125+632.049+441.349+632.049C443.362+632.049+444.209+628.656+444.209+620.009C444.209+600.855+436.794+583.999+421.752+568.785C407.663+554.556+393.362+546.347+381.18+545.8C374.824+545.471+373.235+545.8+370.057+547.989ZM402.048+569.77C407.239+572.506+412.853+577.651+415.502+582.138C418.362+586.845+421.01+597.68+420.057+600.417C419.315+602.387+417.832+601.621+403.002+591.879C393.998+585.969+386.159+580.387+385.629+579.402C384.146+576.994+387.748+569.551+391.243+567.8C394.104+566.267+396.01+566.705+402.048+569.77Z" opacity="1" fill="#000000"/>
<path d="M57.4523+659.302C54.3803+662.477+53.321+664.447+53.2151+667.183C52.6854+686.118+56.1812+692.138+81.287+715.671C90.3971+724.208+94.6344+730.009+94.6344+733.73C94.6344+734.278+93.8929+735.591+92.9395+736.576C88.9141+740.626+77.5794+735.372+63.9142+722.894C58.6176+718.079+53.8507+714.138+53.321+714.138C52.6854+714.138+52.2617+717.75+52.2617+722.128C52.2617+729.352+52.5795+730.666+55.3337+734.606C64.6557+747.85+94.5285+763.064+106.605+760.765C111.266+759.89+116.139+755.84+117.939+751.352C120.058+745.989+118.787+734.168+115.185+726.835C112.007+720.377+101.414+708.775+88.0666+697.283C78.7446+689.183+76.4141+685.681+76.8379+680.536C77.0497+677.034+77.5794+676.268+79.8039+676.049C85.7361+675.173+94.5285+679.88+106.817+690.825C112.855+696.188+113.702+695.75+113.702+686.775C113.702+679.223+110.842+674.407+102.897+669.044C87.9607+658.755+78.5328+655.034+67.8337+655.034C61.9015+655.034+61.2659+655.253+57.4523+659.302Z" opacity="1" fill="#000000"/>
<path d="M387.006+841.76C379.485+844.606+376.943+849.531+377.684+859.929C378.532+872.735+383.404+879.74+403.743+898.238C416.243+909.621+419.421+914.327+418.15+919.362C417.62+921.551+416.879+922.099+413.913+922.099C407.239+922.099+397.493+916.188+385.523+904.805C378.32+898.019+378.108+897.909+377.154+900.317C375.671+904.477+376.943+914.984+379.485+918.706C385.523+927.462+409.676+941.91+421.222+943.77C437.006+946.288+444.315+939.72+442.938+924.397C441.773+912.248+436.688+905.352+409.993+879.959C401.625+872.079+400.777+870.765+400.777+867.263C400.777+864.198+401.307+863.104+403.214+862.228C407.345+860.258+418.362+865.621+426.731+873.502C432.133+878.755+435.947+881.601+436.9+880.944C438.489+879.959+438.065+867.044+436.264+864.417C433.192+859.929+418.044+849.094+409.887+845.591C402.048+842.198+390.714+840.337+387.006+841.76Z" opacity="1" fill="#000000"/>
<path d="M878.593+391.132C850.977+407.079+823.371+423.027+795.754+438.974C789.738+442.444+783.382+446.285+780.352+452.677C778.074+457.482+778.032+463.053+778.032+468.406C778.032+513.949+778.043+559.492+778.043+605.047C778.043+612.916+778.043+620.786+778.043+628.656C778.043+636.044+777.291+643.705+777.905+651.05C778.022+652.385+778.255+653.863+779.261+654.716C780.31+655.603+781.835+655.504+783.159+655.242C791.358+653.622+799.25+647.241+806.411+643.06C815.055+638.025+823.699+632.979+832.343+627.944C849.441+617.973+866.528+608.013+883.625+598.042C920.648+576.458+959.504+553.013+980.076+514.573C983.762+507.688+986.834+500.224+987.152+492.365C987.47+484.506+984.61+476.166+978.413+471.613C973.105+467.716+966.188+467.059+959.695+467.541C947.47+468.45+935.743+472.915+923.604+474.623C911.464+476.33+897.788+474.699+889.313+465.549C882.693+458.402+880.511+448.026+879.907+438.142C878.794+419.852+882.216+401.289+889.748+384.696C886.008+386.842+882.301+388.987+878.593+391.132ZM802.863+468.439C803.201+466.457+803.509+464.465+803.911+462.495M803.911+462.484C805.458+451.101+820.892+442.247+829.473+437.19C838.519+431.859+847.778+426.901+857.206+422.337C862.47+419.787+866.835+422.26+866.464+428.565C865.447+445.804+861.305+465.746+872.121+480.686C882.142+494.521+898.265+497.17+913.837+494.018C927.015+491.347+939.398+485.404+952.534+482.536C957.629+481.42+963.254+480.861+967.756+483.565C972.894+486.662+975.118+493.317+975.033+499.457C974.8+515.284+962.576+527.904+950.659+537.854C908.837+572.802+860.468+598.195+812.502+623.325C809.155+625.076+805.066+626.817+801.856+624.836C798.816+622.964+798.254+619.057+797.968+615.74C797.142+606.13+797.492+596.455+797.841+586.823C798.572+566.574+799.303+546.325+800.034+526.076C800.723+506.933+800.543+487.352+802.873+468.439" opacity="1" fill="#000000"/>
<path d="M766.464+641.538C765.924+587.129+765.394+532.72+764.854+478.311C764.833+475.739+764.738+472.959+763.244+470.901C759.96+466.392+753.096+468.526+748.223+471.076C731.581+479.789+715.003+488.6+698.467+497.52C670.935+512.373+643.435+527.62+618.637+546.938C594.908+565.436+573.171+588.705+563.955+617.907C561.889+624.453+560.48+631.37+561.285+638.2C562.09+645.03+565.406+651.794+571.073+655.406C579.251+660.616+589.834+658.197+598.923+654.968C628.393+644.482+655.469+626.915+677.408+604.051C679.78+601.577+681.931+596.991+679.039+595.185C653.043+609.841+627.048+624.496+601.062+639.163C596.168+641.921+590.618+644.767+585.257+643.191C576.349+640.564+574.601+628.152+576.539+618.783C580.554+599.388+592.651+582.609+607.185+569.671C621.719+556.734+638.721+547.157+655.49+537.503C682.069+522.202+708.488+506.397+736.645+494.488C740.278+492.945+745.299+491.872+747.439+495.276C748.35+496.71+748.371+498.538+748.371+500.257C748.361+547.507+748.361+594.747+748.35+641.998C748.35+647.033+748.318+652.243+746.337+656.84C743.689+663.002+738.022+667.095+732.598+670.839C704.918+689.949+676.719+708.239+648.033+725.696C633.075+734.792+617.906+743.701+601.634+749.918C596.02+752.064+589.516+753.826+584.262+750.86C577.09+746.821+576.306+736.412+578.128+728.181C583.224+705.196+600.808+687.311+619.781+674.21C638.753+661.108+659.876+651.378+677.905+636.93C680.988+634.457+684.24+630.133+681.91+626.893C679.907+624.113+675.723+625.077+672.619+626.379C635.045+642.151+601.486+668.037+576.168+700.774C570.702+707.845+565.544+715.353+562.577+723.869C557.027+739.827+561.677+762.155+579.707+766.697C590.12+769.313+600.808+764.552+610.437+759.703C658.647+735.416+704.304+706.083+749.123+675.644C754.589+671.933+760.257+667.96+763.35+662.006C766.496+655.942+766.507+648.718+766.443+641.845C766.475+641.757+766.475+641.648+766.464+641.538Z" opacity="1" fill="#000000"/>
<path d="M989.747+600.088C988.275+594.134+985.235+588.837+980.298+585.269C969.631+577.563+955.044+580.912+942.777+585.389C916.135+595.097+890.987+608.659+865.956+622.176C850.68+630.418+835.394+638.671+820.119+646.912C813.583+650.437+806.973+654.027+801.485+659.116C783.901+675.447+781.846+702.689+781.019+727.097C779.462+772.674+777.905+818.25+776.348+863.826C776.072+871.794+775.575+879.784+775.532+887.752C775.511+892.295+777.767+900.175+782.831+901.204C786.083+901.861+789.293+899.3+790.627+896.169C791.962+893.039+791.877+889.482+791.782+886.067C790.066+824.948+792.026+763.72+797.64+702.854C798.403+694.546+799.335+685.932+803.551+678.818C808.721+670.073+817.968+664.972+826.771+660.276C863.964+640.444+901.146+620.611+938.339+600.789C947.428+595.94+959.006+591.234+967.195+597.582C975.743+604.204+973.974+618.082+969.218+627.955C959.938+647.186+943.169+661.459+925.426+672.667C907.682+683.875+888.54+692.631+871.114+704.364C865.225+708.326+858.911+713.897+859.303+721.154C894.462+708.523+927.629+689.807+956.4+665.41C969.472+654.322+981.993+641.516+988+625.186C990.86+617.327+991.718+608.1+989.747+600.088Z" opacity="1" fill="#000000"/>
<path d="M993.074+704.397C992.883+699.296+991.961+694.196+989.832+689.61C987.332+684.225+983.042+679.584+977.597+677.581C970.786+675.075+963.212+676.913+956.432+679.529C932.852+688.603+913.445+706.334+891.316+718.724C885.659+721.898+879.78+724.744+874.653+728.761C869.526+732.778+865.098+738.174+863.604+744.643C887.968+738.579+907.873+721.078+929.652+708.283C938.392+703.149+947.724+698.673+957.714+697.501C962.491+696.943+967.682+697.272+971.58+700.183C976.686+704.003+978.222+711.238+977.798+717.728C976.856+732.307+968.148+745.212+957.957+755.347C932.979+780.215+898.689+792.572+871.739+815.119C869.006+817.407+866.549+820.099+865.998+823.799C865.437+827.509+867.979+829.731+871.729+828.932C874.187+828.407+876.22+826.721+878.201+825.123C893.042+813.16+909.758+803.988+926.008+794.17C942.258+784.352+958.318+773.67+971.029+759.32C983.741+744.971+992.957+726.485+993.106+707.046C993.116+706.148+993.106+705.273+993.074+704.397Z" opacity="1" fill="#000000"/>
<path d="M766.909+691.153C766.793+689.654+766.443+688.209+765.5+687.092C762.736+683.82+757.598+685.878+753.996+688.132C717.132+711.161+679.833+733.435+642.122+754.953C615.014+770.419+586.274+786.913+571.211+814.868C564.982+826.426+561.349+840.107+563.181+853.362C564.728+864.581+570.904+874.815+582.62+876.314C591.529+877.453+600.332+873.906+608.52+870.076C630.639+859.71+651.539+846.795+672.312+833.803C675.49+831.811+678.763+829.742+680.967+826.645C683.17+823.547+684.081+819.147+682.185+815.842C651.836+829.48+624.389+850.33+592.461+859.316C588.647+860.389+584.103+861.133+581.116+858.452C579.474+856.974+578.669+854.741+578.118+852.563C573.806+835.554+580.946+817.188+592.344+804.119C603.743+791.051+618.901+782.273+633.774+773.724C669.6+753.136+705.416+732.548+741.242+711.96C743.276+710.789+745.861+709.629+747.789+710.997C749.123+711.938+749.547+713.744+749.833+715.386C752.598+731.191+751.994+747.401+751.38+763.458C749.505+812.558+747.63+861.67+745.744+910.77C745.67+912.762+745.638+914.929+746.803+916.516C747.831+917.928+749.632+918.574+751.348+918.596C755.818+918.662+759.717+915.028+761.496+910.792C763.276+906.556+763.382+901.795+763.467+897.176C764.632+829.326+765.797+761.477+766.952+693.616C766.973+692.806+766.973+691.974+766.909+691.153Z" opacity="1" fill="#000000"/>
<path d="M576.974+971.112C576.645+970.838+576.327+970.542+576.02+970.225C573.457+967.532+572.482+963.636+572.164+959.882C571.455+951.355+573.69+942.774+577.313+935.069C586.01+916.582+602.228+903.076+619.187+892.327C636.147+881.59+654.389+872.943+670.395+860.739C675.988+856.471+681.74+850.889+681.952+843.708C657.27+853.625+634.06+867.142+612.069+882.378C602.249+889.175+592.599+896.476+584.537+905.473C576.285+914.689+570.755+925.929+566.073+937.422C561.868+947.743+559.018+958.962+560.194+970.247C560.745+975.599+562.397+981.159+566.349+984.673C570.798+988.635+577.217+989.182+583.065+988.624C594.548+987.519+605.437+982.932+615.819+977.744C629.95+970.685+643.478+962.421+657.238+954.606C662.079+951.859+666.994+949.122+671.189+945.401C675.384+941.68+678.848+936.809+679.918+931.205C649.537+941.132+624.664+965.54+593.615+972.918C587.99+974.264+581.37+974.723+576.974+971.112Z" opacity="1" fill="#000000"/>
</g>
</g>
</svg>
