<?xml version="1.0" encoding="UTF-8" standalone="no"?>
<!DOCTYPE svg PUBLIC "-//W3C//DTD SVG 1.1//EN" "http://www.w3.org/Graphics/SVG/1.1/DTD/svg11.dtd">
<!-- Created with Vectornator (http://vectornator.io/) -->
<svg height="100%" stroke-miterlimit="10" style="fill-rule:nonzero;clip-rule:evenodd;stroke-linecap:round;stroke-linejoin:round;" version="1.1" viewBox="0 0 1024 1024" width="100%" xml:space="preserve" xmlns="http://www.w3.org/2000/svg" xmlns:vectornator="http://vectornator.io" xmlns:xlink="http://www.w3.org/1999/xlink">
<defs/>
<g id="Capa-1" vectornator:layerName="Capa 1">
<g opacity="1">
<path d="M494.965 60.8131C479.221 65.142 465.256 76.6474 452.109 87.287C415.473 116.907 376.388 143.188 336.008 167.036C295.499 190.96 253.695 212.451 211.37 232.73C190.114 242.917 168.719 252.787 147.268 262.523C136.542 267.39 125.798 272.21 115.044 277.029C109.672 279.434 104.3 281.839 98.9188 284.235C94.2357 286.322 89.6084 287.188 91.9732 293.239C94.1798 298.886 97.876 303.821 102.364 307.736C111.823 315.98 124.01 319.934 135.35 324.513C157.155 333.325 178.756 342.656 200.142 352.488C242.914 372.16 284.81 393.872 325.655 417.518C366.5 441.164 406.302 466.743 444.866 494.169C453.348 500.201 461.773 506.329 470.144 512.534C482.443 521.663 495.756 531.398 510.905 531.389C525.438 531.389 538.342 522.413 550.315 513.909C669.433 429.274 796.39 356.441 928.905 296.731C907.323 272.672 876.357 260.647 846.936 248.314C745.732 205.881 649.555 150.643 561.246 84.2374C544.943 71.9817 527.272 58.764 507.124 59.0526C502.953 59.0911 498.903 59.726 494.965 60.8131ZM536.443 125.603C547.522 128.585 556.46 132.144 578.34 141.764C596.495 149.749 643.233 173.414 661.668 183.899C729.727 222.475 776.279 252.97 801.697 275.481C814.173 286.447 816.407 292.508 811.1 301.069C800.207 318.962 762.127 347.918 694.254 389.765C651.054 416.508 591.84 447.58 557.857 461.24C536.908 469.802 532.253 470.86 518.288 470.764C506.65 470.764 504.974 470.475 495.012 467.301C465.963 458.162 439.894 446.618 387.011 419.586C355.635 403.617 340.366 395.248 307.407 375.72C245.027 338.876 209.182 312.517 203.968 299.723C202.758 296.644 202.758 296.067 204.434 292.7C213.279 274.807 245.865 251.623 322.304 208.815C332.079 203.428 347.349 194.77 356.287 189.575C423.787 150.807 461.867 132.722 490.356 125.699C503.857 122.428 504.322 122.332 516.426 122.717C524.153 123.006 529.739 123.775 536.443 125.603Z" fill="#ffffff" fill-rule="nonzero" opacity="1" stroke="none"/>
<path d="M484.77 142.822C475.646 145.805 471.643 147.44 447.994 157.83C437.101 162.543 392.411 185.246 373.045 195.828C350.7 208.045 312.248 230.652 299.493 239.117C279.383 252.393 253.593 270.863 246.703 276.827C238.044 284.331 230.596 293.374 230.596 296.356C230.596 298.664 235.251 305.014 239.999 309.246C245.865 314.345 264.579 327.524 284.131 340.126C331.893 370.91 392.225 404.868 440.08 427.956C489.425 451.717 504.881 457.104 519.126 455.661C525.643 454.987 540.446 450.178 550.222 445.56C553.388 444.021 562.698 439.692 570.891 435.844C605.992 419.586 637.647 401.501 694.72 365.426C699.375 362.54 709.989 355.903 718.462 350.708C735.686 340.03 763.338 321.56 771.903 314.922C783.541 305.879 792.014 295.875 792.014 291.257C792.014 289.141 780.19 278.078 770.507 271.055C749.931 256.337 700.958 225.553 674.703 211.027C670.885 208.815 661.482 203.524 653.754 199.195C617.816 178.897 562.512 152.442 536.443 143.111C528.436 140.321 527.226 140.129 511.305 139.84L494.546 139.552L484.77 142.822ZM516.612 171.297C522.198 178.416 530.205 190.441 534.953 198.906C542.588 212.182 552.178 236.616 550.502 238.348C550.222 238.733 545.102 239.214 539.143 239.406L528.343 239.887L528.808 252.008C528.995 258.646 529.833 270.382 530.671 278.078C531.508 285.774 532.346 297.029 532.44 303.09L532.719 314.152L512.795 314.441L492.87 314.633L493.522 309.15C493.894 306.072 494.732 298.376 495.477 292.027C496.222 285.678 497.432 275.288 498.27 268.939C500.225 253.836 501.343 243.062 500.97 242.581C500.319 241.907 483.467 237.771 481.046 237.674C477.043 237.578 476.205 236.52 477.415 232.961C479.091 228.055 504.694 175.338 508.046 170.047C509.629 167.449 511.212 165.525 511.677 165.718C512.143 165.91 514.377 168.411 516.612 171.297ZM427.046 240.753C438.963 247.679 451.253 257.78 451.253 260.666C451.253 261.82 434.215 266.246 421.366 268.362C412.056 269.901 395.67 275 389.152 278.27C385.987 279.906 381.611 282.888 379.469 284.908C375.745 288.467 375.652 288.852 376.118 293.085C377.142 302.897 387.942 309.631 411.218 315.114C431.608 319.828 437.287 320.502 466.615 322.329C503.205 324.542 575.36 322.426 596.309 318.481C632.713 311.748 642.209 308.862 649.378 302.705C651.799 300.492 652.358 299.338 652.358 296.26C652.358 291.353 650.589 287.986 645.933 283.561C637.461 275.673 623.961 270.959 613.719 272.402C606.737 273.268 598.45 275 597.333 275.769C596.868 276.058 593.702 277.116 590.443 278.078C584.95 279.713 584.392 279.713 584.019 278.27C583.181 275.577 578.805 252.681 578.805 251.238C578.805 248.256 632.526 253.066 640.72 256.818C646.958 259.704 665.02 272.787 671.816 279.521C677.775 285.293 686.806 297.51 686.806 299.723C686.806 301.55 676.006 311.555 668.465 316.846C656.733 325.023 634.202 333.777 612.323 338.779C587.836 344.263 571.357 345.417 517.357 345.417C462.705 345.417 440.546 343.974 403.77 338.298C364.852 332.334 335.338 319.636 323.141 303.763C318.859 298.28 319.045 295.394 323.886 287.698C336.083 268.458 362.711 249.218 387.942 241.426C405.911 235.847 418.201 235.558 427.046 240.753ZM527.133 358.212L531.788 359.366L532.067 388.322L532.253 417.374L519.684 418.047C512.795 418.432 501.808 418.432 495.384 418.047L483.56 417.374L484.212 404.676C484.584 397.749 485.422 385.147 486.26 376.682C487.843 359.366 488.215 358.5 495.012 356.961C500.319 355.807 520.988 356.576 527.133 358.212Z" fill="#ffffff" fill-rule="nonzero" opacity="1" stroke="none"/>
<path d="M943.922 309.573C857.522 361.117 771.121 412.66 684.721 464.213C633.429 494.814 580.723 526.675 544.878 575.39C534.637 589.31 525.661 605.327 525.196 622.797C524.73 640.276 535.298 659.044 551.926 662.267C540.176 677.957 529.935 695.706 527.57 715.388C525.205 735.07 532.281 756.955 548.677 767.278C539.041 781.746 530.531 797.83 529.311 815.348C528.082 832.866 535.801 852.038 551.246 859.378C549.561 858.58 539.627 882.466 538.817 884.775C535.503 894.144 533.305 903.937 532.3 913.856C530.615 930.373 531.248 950.363 549.068 956.943C558.872 960.56 569.737 958.963 579.811 956.289C610.926 948.035 639.463 929.709 660.402 904.534C633.904 920.301 605.852 933.278 576.832 943.206C568.787 945.957 559.272 948.266 552.41 943.119C546.759 938.877 545.046 931.008 544.524 923.803C542.644 897.867 551.135 871.288 567.596 851.615C550.8 844.766 541.936 824.42 543.174 805.805C544.413 787.191 553.77 770.202 564.467 755.176C546.508 748.952 537.793 726.46 540.549 707.096C543.305 687.731 554.701 670.983 566.301 655.504C546.982 650.752 536.75 626.798 540.307 606.616C543.863 586.433 557.559 569.83 572.083 555.833C604.204 524.886 642.489 501.769 680.428 478.922C764.65 428.196 848.863 377.471 933.085 326.735C939.342 322.984 946.604 316.529 943.922 309.573Z" fill="#ffffff" fill-rule="nonzero" opacity="1" stroke="none"/>
<path d="M959.722 662.94C958.428 651.647 953.177 640.661 944.109 634.35C942.005 632.888 939.547 631.454 938.811 628.944C938.029 626.26 939.547 623.499 940.943 621.094C948.308 608.482 954.099 594.476 954.797 579.767C955.486 565.048 950.44 549.532 939.305 540.325C937.331 538.69 935.05 537.064 934.407 534.534C933.662 531.581 935.45 528.647 937.061 526.078C946.464 511.168 952.693 494.121 955.179 476.507C957.227 462 955.905 445.194 945.012 435.805C934.733 426.946 919.492 427.879 906.737 432.063C893.981 436.248 881.98 443.213 868.722 445.117C866.506 445.435 864.132 445.589 862.14 444.521C859.44 443.078 858.174 439.827 857.522 436.748C853.993 419.981 862.708 402.617 874.904 390.977C887.101 379.337 902.482 372.045 916.95 363.628C931.419 355.21 945.747 344.888 953.475 329.698C917.369 346.35 879.485 364.474 856.731 397.884C849.934 407.869 844.599 419.375 844.106 431.573C843.612 443.694 849.021 456.873 859.784 461.721C872.484 467.445 886.766 460.096 899.233 453.833C911.699 447.58 927.816 442.703 938.374 451.976C947.647 460.124 947.367 474.978 944.472 487.195C942.014 497.575 937.973 507.502 932.871 516.786C930.367 521.355 927.611 525.761 924.659 530.042C921.95 533.967 917.211 538.257 915.442 542.586C921.354 544.808 926.801 545.53 931.623 550.234C936.381 554.871 939.77 561.075 941.176 567.665C943.932 580.585 940.282 594.11 934.77 606.048C929.249 617.987 921.885 628.934 916.485 640.93C931.521 641.401 943.308 656.562 944.733 672.041C946.157 687.51 939.472 702.632 930.888 715.398C910.759 745.315 880.426 765.902 850.846 785.738C846.861 788.412 842.867 791.087 838.882 793.761C836.182 795.57 830.736 797.734 829.665 801.111C826.816 810.076 841.685 800.918 844.022 799.668C857.783 792.308 871.292 784.411 884.187 775.531C909.455 758.119 932.713 736.523 947.805 708.952C948.392 707.884 950.207 705.576 950.207 704.373C955.942 692.964 960.253 680.429 960.02 667.577C960.011 666.057 959.899 664.499 959.722 662.94Z" fill="#ffffff" fill-rule="nonzero" opacity="1" stroke="none"/>
<path d="M81.9087 335.22C71.8534 339.068 67.1982 343.878 63.8465 353.786C62.2637 358.404 61.7982 363.599 60.8672 382.935C59.7499 409.87 59.7499 434.209 60.8672 549.839C61.7982 639.689 61.4258 632.57 67.1982 660.757C71.0155 679.708 81.3501 704.816 92.057 721.554C98.8536 732.04 113.471 748.297 122.502 755.128C134.047 763.882 200.616 803.9 246.424 829.585C270.538 843.053 287.855 853.731 307.872 867.295C325.283 879.128 335.524 885.573 347.442 892.307C372.859 906.641 386.08 914.625 403.863 926.169C433.097 945.024 444.829 950.411 458.329 951.277C468.57 951.854 474.249 949.93 480.208 943.773C485.981 937.809 488.96 931.46 492.219 918.473C496.874 899.426 497.06 891.922 496.594 778.792C496.222 662.2 495.85 653.83 490.729 620.546C486.26 591.975 473.691 565.52 455.07 545.318C439.335 528.195 425.463 518.094 380.494 491.158C373.604 487.022 351.818 473.842 332.079 461.818C284.503 432.862 219.889 394.286 201.734 384.089C198.382 382.261 195.309 380.433 194.751 380.049C189.909 376.297 135.63 346.86 120.268 339.549C105.278 332.526 92.8019 331.083 81.9087 335.22ZM115.519 347.822C124.271 350.804 152.575 365.619 181.251 382.261C183.02 383.319 189.165 386.879 194.844 390.15C218.027 403.617 237.486 415.835 255.92 428.533L265.976 435.363L262.438 438.73C257.875 443.059 230.037 467.012 219.517 475.67C215.141 479.326 209.275 483.366 206.668 484.617C200.337 487.599 187.023 490.389 174.733 491.158C169.333 491.447 153.226 493.275 138.888 495.199C112.633 498.566 80.419 500.393 72.9707 498.95L69.5258 498.277L69.4327 491.351C69.4327 487.503 69.0603 481.154 68.5948 477.209C67.012 463.838 65.5224 380.337 66.7327 373.315C68.6879 361.578 76.5086 351.478 86.5639 347.437C93.826 344.551 106.302 344.744 115.519 347.822ZM306.941 456.719C329.659 468.936 365.783 490.773 410.939 519.537C435.332 534.929 451.067 548.493 461.68 562.826C471.177 575.813 481.232 601.017 483.746 618.525C486.167 635.264 486.632 639.881 487.75 666.24C489.146 698.274 489.239 717.418 488.122 739.64L487.284 755.32L484.491 752.626C480.394 748.49 461.68 726.268 452.091 713.858C447.435 707.798 431.887 686.73 417.735 667.202C389.897 628.722 379.656 615.351 365.783 598.901C350.7 581.2 347.162 575.813 335.897 553.976C329.938 542.24 328.448 539.546 316.438 517.613C301.076 489.619 286.831 459.22 283.2 446.618L282.641 444.502L288.041 446.907C291.021 448.254 299.493 452.679 306.941 456.719ZM270.538 463.261C271.189 465.858 271.934 471.918 272.213 476.632L272.772 485.098L270.072 483.655C268.024 482.597 256.479 473.939 253.034 470.86C252.848 470.668 256.013 467.301 260.017 463.357C268.21 455.372 268.769 455.372 270.538 463.261ZM286.738 479.133C290.555 492.986 290.555 492.601 288.041 492.601C286.831 492.601 284.41 492.12 282.734 491.543C279.755 490.485 279.755 490.292 280.314 486.06C280.593 483.655 280.872 477.979 280.872 473.458L280.872 465.185L282.734 468.07C283.665 469.61 285.527 474.612 286.738 479.133ZM242.327 490.389C241.862 495.295 236.834 507.993 235.437 507.993C234.041 507.993 225.755 494.621 226.406 493.467C227.244 492.216 240.093 484.905 241.675 484.905C242.699 484.905 242.793 486.06 242.327 490.389ZM272.027 499.816C272.4 503.76 272.493 508.089 272.12 509.34C271.562 511.649 271.469 511.745 267.558 510.302C258.062 506.935 253.313 502.51 252.289 496.161L251.731 492.601L261.6 492.601L271.376 492.601L272.027 499.816ZM173.244 497.507C177.62 498.662 184.696 503.953 183.392 505.107C182.554 505.973 176.875 506.358 169.52 506.165C164.864 506.069 164.771 505.973 163.747 502.317C163.095 500.297 162.63 498.181 162.63 497.507C162.63 496.161 168.03 496.161 173.244 497.507ZM289.717 511.264C294.931 516.458 295.862 518.094 297.631 524.154C298.748 528.002 299.493 531.369 299.214 531.658C298.562 532.427 288.507 525.694 284.876 522.134C281.803 519.152 281.245 517.42 280.593 508.282C280.22 503.568 280.314 503.375 281.989 504.241C283.014 504.818 286.458 507.897 289.717 511.264ZM227.617 512.418C234.972 517.709 233.482 531.465 224.917 535.891C221.472 537.718 220.541 537.911 217.468 536.949C214.21 535.891 203.596 527.04 203.596 525.309C203.596 523.481 221.844 510.975 224.544 510.879C225.103 510.879 226.499 511.552 227.617 512.418ZM169.427 515.304C171.102 516.17 172.685 517.42 173.058 517.998C174.547 520.21 173.709 523.385 171.475 524.924C168.309 527.04 156.299 526.271 147.733 523.481C142.054 521.653 134.699 516.651 134.699 514.631C134.699 514.15 141.402 513.765 150.526 513.765C163.468 513.765 167.006 514.054 169.427 515.304ZM198.01 522.423L198.01 529.157L193.168 529.061C190.468 528.964 187.116 528.676 185.72 528.291C183.206 527.714 183.113 527.714 184.603 524.828C187.209 519.537 191.585 515.689 194.937 515.689L198.01 515.689L198.01 522.423ZM264.672 518.96C267.372 520.21 270.165 522.327 271.003 523.577C272.865 526.559 273.889 535.987 273.051 542.913C272.307 548.974 273.424 548.877 259.365 544.356C254.431 542.817 248.286 540.123 245.865 538.488L241.303 535.41L241.024 529.349C240.744 523.385 240.837 523.192 244.562 519.344L248.286 515.4L254.058 516.074C257.224 516.362 261.972 517.709 264.672 518.96ZM78.8363 524.058C82.5604 528.195 92.1501 539.931 100.157 550.32C113.75 567.732 121.664 578.507 147.92 614.87C153.32 622.47 165.795 638.535 175.478 650.56C200.337 681.343 213.465 702.603 235.158 747.047C247.448 772.251 255.641 789.952 259.738 800.437C263.089 809.191 269.7 828.335 269.7 829.489C269.7 830.836 266.627 829.585 254.244 823.429C244.562 818.619 223.241 806.402 207.785 796.878C156.485 765.228 123.433 742.91 112.633 732.617C101.74 722.324 92.057 707.99 82.7466 688.366C77.5328 677.495 74.5535 668.741 72.1328 657.101C70.3638 648.636 70.1776 643.826 69.8052 587.453C69.3396 529.638 69.6189 516.651 71.3879 516.651C71.7603 516.651 75.1121 520.018 78.8363 524.058ZM124.923 527.329C135.909 529.83 153.32 535.121 153.32 535.987C153.32 536.372 152.295 539.546 150.992 543.009C149.688 546.569 148.664 551.282 148.664 553.591C148.664 555.9 150.526 563.692 152.854 571.099C155.182 578.41 157.044 584.856 157.044 585.337C157.044 589.185 115.892 552.918 105.464 539.835C103.602 537.526 102.205 535.506 102.392 535.313C102.95 534.736 113.005 539.161 125.947 545.607C132.464 548.781 138.144 551.186 138.795 550.994C140.471 550.32 132.464 543.202 121.106 535.313C115.333 531.273 109.84 527.137 108.909 526.078C107.233 524.058 107.233 524.058 111.888 524.732C114.495 525.116 120.361 526.271 124.923 527.329ZM291.952 538.392C302.193 546.28 307.872 555.515 312.528 571.292C313.645 575.14 314.39 578.603 314.017 578.891C313.179 579.757 302.193 573.697 295.769 568.694C292.417 566.097 287.669 561.768 285.248 559.075L280.872 554.265L280.872 542.625L280.872 530.984L283.479 532.427C284.876 533.197 288.693 535.891 291.952 538.392ZM180.785 541.855C180.413 543.106 178.737 547.338 177.061 551.282C172.313 562.441 171.568 567.155 173.244 574.082C174.082 577.256 175.851 582.451 177.154 585.529C181.065 594.572 182.182 599.382 182.182 607.078L182.182 614.293L178.923 610.445C170.264 600.151 163.84 587.742 162.071 577.833C159.558 564.654 161.14 547.627 165.144 543.49C166.913 541.566 172.685 540.027 178.271 539.835C181.065 539.739 181.344 539.931 180.785 541.855ZM213.092 546.088C217.096 548.204 217.841 550.513 216.63 556.862C216.072 559.844 214.768 564.462 213.837 567.155C211.882 572.735 206.389 584.952 205.83 584.952C205.644 584.952 202.013 582.643 197.823 579.757C188.792 573.793 183.113 568.117 183.113 565.327C183.113 562.057 188.234 551.86 191.958 547.531C193.913 545.318 196.706 543.202 198.382 542.817C201.361 541.951 208.158 543.49 213.092 546.088ZM252.475 554.649C260.762 556.862 269.7 561.768 272.213 565.616C274.262 568.791 274.355 569.56 274.355 591.782C274.355 611.31 274.076 615.255 272.772 618.141C271.934 619.968 270.91 621.508 270.631 621.508C268.676 621.508 255.734 616.313 250.334 613.331C241.768 608.713 228.082 597.843 224.358 592.744C220.634 587.742 220.448 584.182 223.241 574.755C226.034 565.231 228.92 559.844 233.482 555.708C237.206 552.148 237.579 552.052 242.141 552.629C244.748 552.918 249.403 553.88 252.475 554.649ZM293.814 577.545C302.379 581.97 314.39 595.63 321.186 609.002C327.797 621.604 331.8 636.322 332.731 650.56L333.29 659.987L329.659 658.448C320.535 654.504 303.683 645.269 297.538 640.747C282.734 629.877 282.176 628.915 281.338 610.829C280.965 603.037 280.965 591.686 281.338 585.433L281.989 574.178L285.807 574.755C287.948 575.14 291.579 576.39 293.814 577.545ZM327.052 580.623C333.848 585.529 339.155 593.033 341.762 601.787C342.786 605.346 343.904 615.736 343.159 615.736C342.88 615.736 339.993 614.004 336.921 611.888C328.169 605.827 324.352 599.767 322.21 588.127C320.721 580.046 320.535 577.256 321.559 577.256C321.931 577.256 324.445 578.795 327.052 580.623ZM160.954 598.997C164.399 601.883 168.496 606.212 170.078 608.521C172.778 612.561 178.085 626.317 176.968 626.317C175.385 626.317 166.633 619.006 159.837 611.984C152.668 604.48 144.94 593.129 144.94 590.051C144.94 588.127 153.785 593.033 160.954 598.997ZM199.685 590.147C203.41 590.916 206.575 591.686 206.761 591.782C207.041 592.263 210.206 607.078 214.303 627.183C216.072 635.841 217.748 643.729 218.12 644.788C218.586 646.423 218.399 646.519 216.723 645.557C212.534 643.248 202.106 632.282 198.01 625.644C195.589 621.892 192.516 616.024 191.213 612.657C189.072 606.982 185.906 593.802 185.906 590.243C185.906 588.415 190.468 588.319 199.685 590.147ZM247.075 621.7C264.393 631.801 270.258 636.034 272.865 640.747C274.634 643.826 274.82 645.942 275.1 664.316C275.286 675.379 275.007 687.404 274.634 691.059L273.889 697.505L266.255 692.983C252.01 684.71 243.444 675.956 234.599 660.66C226.872 647.481 220.355 624.682 220.355 611.214L220.355 607.078L226.22 610.06C229.386 611.695 238.789 616.986 247.075 621.7ZM354.331 614.196C359.731 617.179 366.062 626.702 368.111 634.879L368.669 637.284L365.038 634.975C357.311 630.262 354.611 626.221 351.259 614.966C350.421 612.465 350.886 612.369 354.331 614.196ZM350.142 632.57C357.776 640.266 364.387 655.369 368.018 672.781C369.973 682.401 370.066 682.209 364.573 680.093C361.966 679.034 358.242 677.399 356.38 676.437C345.859 670.857 338.783 656.331 336.828 636.13C335.245 620.93 334.966 621.892 340.645 625.067C343.252 626.51 347.535 629.973 350.142 632.57ZM196.985 636.611C198.661 637.958 200.616 640.459 201.268 642.094C202.851 646.134 203.968 656.139 202.851 656.139C202.292 656.139 199.778 654.407 197.265 652.387C192.423 648.443 190.282 644.114 189.258 636.611C188.792 632.955 188.885 632.859 191.306 633.532C192.703 633.917 195.216 635.264 196.985 636.611ZM180.692 637.188C183.299 638.919 188.047 653.253 186.092 653.253C184.323 653.253 176.968 647.385 175.478 644.788C174.547 643.248 173.616 640.266 173.244 638.054L172.685 634.11L175.665 634.975C177.34 635.456 179.575 636.515 180.692 637.188ZM392.132 656.331C401.628 666.721 414.663 683.748 413.825 684.614C412.894 685.576 396.694 673.551 391.852 668.26C387.383 663.354 382.169 653.83 380.028 646.712C379.469 644.691 379.563 644.499 381.238 645.461C382.263 646.038 387.104 650.944 392.132 656.331ZM296.234 652.003C304.428 656.812 330.404 674.513 333.662 677.591C335.338 679.131 335.524 679.9 334.779 681.92C332.452 688.269 321.466 711.934 320.535 712.8C319.79 713.474 316.717 713.185 311.038 712.031C306.476 711.069 298.748 709.529 293.814 708.567L284.876 706.932L283.386 693.368C281.338 675.956 281.338 658.64 283.293 651.714C285.062 645.461 284.969 645.461 296.234 652.003ZM222.961 661.622C226.872 664.605 229.758 669.511 232.179 676.822C234.413 683.556 236.648 695.388 235.903 696.254C234.972 697.12 229.479 693.079 224.824 688.173C218.586 681.536 213.837 669.607 213.837 660.179L213.837 656.043L216.91 657.678C218.492 658.544 221.286 660.276 222.961 661.622ZM379.749 662.2C384.963 667.394 387.197 671.723 389.804 681.247C393.528 695.292 391.666 716.359 386.08 723.767C383.752 726.749 377.142 729.539 373.231 729.058L370.252 728.769L374.069 717.706C380.494 699.044 380.68 698.274 380.214 692.695C379.935 689.809 378.352 682.401 376.49 676.341C374.721 670.28 372.952 663.162 372.673 660.66C372.021 656.331 372.114 656.043 373.697 656.909C374.628 657.486 377.328 659.891 379.749 662.2ZM360.756 686.442C367.925 690.097 373.883 693.464 373.883 693.753C374.069 695.677 361.221 715.879 357.962 718.861L353.959 722.516L344.09 722.516L334.221 722.516L335.059 716.456C337.014 700.871 344.276 678.361 346.883 679.419C347.349 679.612 353.586 682.69 360.756 686.442ZM251.451 691.444C260.855 697.793 273.61 711.261 275.751 717.033C277.334 721.458 277.334 722.131 275.938 730.405C275.1 735.311 273.982 739.64 273.517 740.121C272.307 741.371 263.741 734.733 256.572 727.23C248.565 718.861 243.537 706.74 242.234 692.31C241.489 684.518 241.21 684.518 251.451 691.444ZM412.335 695.773C417.642 700.102 425.928 707.702 430.77 712.8C438.963 721.266 439.428 721.939 437.287 722.324C435.984 722.42 429.932 720.881 423.787 718.764C417.735 716.648 412.521 715.013 412.335 715.205C411.404 716.263 424.532 726.749 432.353 731.078C437.38 733.964 443.339 737.331 445.666 738.678C451.625 742.141 456.839 746.47 456.839 748.105C456.839 748.971 456.467 749.356 456.001 749.067C455.536 748.778 451.067 748.009 446.039 747.432C430.118 745.604 415.873 741.467 401.256 734.349C397.532 732.617 394.459 730.693 394.459 730.212C394.459 729.635 396.135 725.787 398.276 721.554C400.325 717.321 402.28 712.415 402.559 710.684C402.839 708.952 402.187 703.276 401.07 698.178C398.556 686.345 398.556 685.576 400.976 686.923C402.001 687.5 407.121 691.444 412.335 695.773ZM300.238 721.266C302.938 722.131 307.314 724.152 310.014 725.787L314.855 728.865L314.762 734.349C314.576 741.852 311.317 748.586 306.848 750.125C305.172 750.799 299.4 751.28 294.279 751.28L284.876 751.376L284.224 748.394C283.945 746.758 283.665 739.255 283.665 731.847L283.665 718.38L289.531 719.053C292.696 719.438 297.538 720.4 300.238 721.266ZM342.88 735.214C342.135 742.91 339.248 749.067 335.524 751.087C331.8 753.011 321.466 753.973 320.441 752.434C319.697 751.087 322.397 738.774 324.259 734.83C326.307 730.789 329.566 729.539 338.504 729.346L343.531 729.25L342.88 735.214ZM261.227 742.333C269.7 747.432 273.145 752.145 276.31 763.593C277.334 767.537 277.614 769.654 276.962 769.654C276.403 769.654 272.865 768.114 269.048 766.19C260.296 761.862 257.224 756.859 255.082 743.391C254.431 739.062 255.362 738.87 261.227 742.333ZM395.856 743.295C403.304 744.834 417.828 749.644 424.718 752.915L429.373 755.031L425.184 755.512C415.501 756.859 403.118 757.148 389.897 756.571L375.838 755.897L375.838 748.201L375.838 740.505L382.635 741.179C386.266 741.564 392.318 742.526 395.856 743.295ZM378.818 763.978C387.197 767.537 387.29 768.403 379.469 769.173C375.652 769.461 368.297 769.654 362.99 769.461L353.4 769.173L355.542 765.806C356.752 763.978 358.707 762.15 360.011 761.765C363.828 760.611 373.604 761.765 378.818 763.978ZM297.352 765.421C298.562 766.96 300.61 770.231 301.821 772.732C304.614 778.119 304.334 778.311 293.627 778.311C284.224 778.311 281.803 776.58 281.803 769.942C281.803 763.785 284.317 761.573 290.462 762.246C294.279 762.535 295.676 763.208 297.352 765.421ZM490.636 780.716C492.032 808.037 489.705 897.983 487.284 908.661C485.329 917.511 481.512 924.726 476.391 929.728C465.311 940.406 455.07 940.791 435.332 931.364C412.987 920.686 358.242 888.748 322.304 865.564C307.034 855.655 286.831 841.129 284.689 838.532C283.665 837.281 285.341 835.069 296.327 823.333C303.496 815.733 313.924 804.959 319.51 799.379C331.707 787.258 335.431 785.334 350.7 784.083C359.638 783.314 367.645 782.159 384.218 779.37C387.569 778.792 394.273 777.927 399.114 777.35C407.959 776.291 425.184 772.828 434.028 770.231C445.015 767.056 454.511 766.094 475.46 766.19L489.891 766.287L490.636 780.716ZM272.213 780.62C274.82 783.795 275.658 791.202 274.82 803.131L274.169 812.462L270.538 805.151C266.441 796.589 263.648 788.412 262.717 781.775L262.065 777.061L266.162 777.638C268.862 778.023 270.817 778.985 272.213 780.62ZM296.979 793.319C299.865 793.607 302.286 794.377 302.286 794.858C302.286 797.936 285.434 817.945 284.038 816.599C283.758 816.214 283.2 810.442 282.92 803.708L282.455 791.587L287.017 792.164C289.531 792.453 294 792.934 296.979 793.319Z" fill="#ffffff" fill-rule="nonzero" opacity="1" stroke="none"/>
<path d="M99.3192 379.087C98.295 381.588 98.295 383.127 99.2261 386.686C100.716 392.747 102.578 394.094 110.678 394.767C119.243 395.44 125.388 397.364 131.906 401.405C138.702 405.638 142.147 410.832 142.985 418.432C143.823 425.551 143.544 425.551 134.885 421.029C124.085 415.354 115.426 412.564 107.792 412.468C101.088 412.371 100.995 412.371 97.8295 415.931C94.9433 419.202 94.664 419.971 94.664 425.839C94.664 439.884 105.557 454.987 121.478 462.972C128.647 466.531 130.323 467.109 136.095 467.109C139.726 467.109 143.544 466.724 144.754 466.339C146.616 465.569 146.802 465.858 146.802 468.744C146.802 470.475 147.361 472.88 148.106 473.939C149.782 476.344 162.164 482.404 164.027 481.635C165.237 481.25 165.423 477.113 165.423 455.084C165.423 417.278 163.747 410.832 150.992 398.423C139.54 387.456 119.43 377.547 106.209 376.489L100.53 376.008L99.3192 379.087ZM134.699 433.92L142.613 437.672L142.892 444.502C143.171 451.043 143.078 451.332 140.75 452.198C131.719 455.757 119.337 449.504 117.102 440.173C116.543 437.768 116.264 434.786 116.637 433.439C117.94 428.052 122.502 428.148 134.699 433.92Z" fill="#ffffff" fill-rule="nonzero" opacity="1" stroke="none"/>
<path d="M385.149 540.893C383.194 542.144 380.866 545.222 379.376 548.3C376.863 553.303 376.769 554.265 376.769 566.578C376.769 580.719 377.98 586.587 382.914 596.688C390.921 613.042 406.656 627.76 426.394 637.38C437.194 642.671 443.618 644.499 444.829 642.575C446.039 640.555 445.853 630.743 444.549 628.915C443.897 628.049 440.639 626.414 437.287 625.452C433.935 624.49 429.28 622.758 426.766 621.604C416.246 616.89 404.328 606.02 400.976 598.131C399.114 593.61 397.718 584.952 398.835 584.952C399.859 584.952 404.701 588.03 423.321 600.248C441.384 612.08 445.853 614.774 447.808 614.774C449.577 614.774 450.322 611.791 450.322 604.192C450.322 587.357 443.804 572.542 430.584 559.171C418.201 546.665 405.632 539.45 394.925 538.969C389.338 538.68 387.942 538.969 385.149 540.893ZM413.266 560.037C417.828 562.441 422.763 566.963 425.09 570.907C427.604 575.044 429.932 584.567 429.094 586.972C428.442 588.704 427.139 588.03 414.104 579.469C406.19 574.274 399.301 569.368 398.835 568.502C397.532 566.386 400.697 559.844 403.77 558.305C406.283 556.958 407.959 557.343 413.266 560.037Z" fill="#ffffff" fill-rule="nonzero" opacity="1" stroke="none"/>
<path d="M110.399 638.727C107.699 641.517 106.767 643.248 106.674 645.653C106.209 662.296 109.281 667.587 131.347 688.269C139.354 695.773 143.078 700.871 143.078 704.142C143.078 704.623 142.426 705.778 141.588 706.643C138.05 710.203 128.088 705.585 116.078 694.619C111.423 690.386 107.233 686.923 106.767 686.923C106.209 686.923 105.836 690.097 105.836 693.945C105.836 700.294 106.116 701.449 108.536 704.912C116.73 716.552 142.985 729.924 153.599 727.903C157.695 727.134 161.978 723.574 163.561 719.63C165.423 714.917 164.306 704.527 161.14 698.082C158.347 692.406 149.037 682.209 137.306 672.108C129.112 664.989 127.064 661.911 127.437 657.39C127.623 654.311 128.088 653.638 130.044 653.446C135.257 652.676 142.985 656.812 153.785 666.432C159.092 671.146 159.837 670.761 159.837 662.873C159.837 656.235 157.323 652.003 150.34 647.289C137.213 638.246 128.926 634.975 119.523 634.975C114.309 634.975 113.75 635.168 110.399 638.727Z" fill="#ffffff" fill-rule="nonzero" opacity="1" stroke="none"/>
<path d="M400.045 799.09C393.435 801.592 391.201 805.921 391.852 815.059C392.597 826.315 396.88 832.471 414.756 848.729C425.742 858.734 428.535 862.87 427.418 867.295C426.953 869.219 426.301 869.7 423.694 869.7C417.828 869.7 409.263 864.506 398.742 854.501C392.411 848.537 392.225 848.44 391.387 850.557C390.083 854.212 391.201 863.447 393.435 866.718C398.742 874.414 419.97 887.112 430.118 888.748C443.991 890.96 450.415 885.188 449.204 871.72C448.18 861.042 443.711 854.982 420.249 832.664C412.894 825.737 412.149 824.583 412.149 821.505C412.149 818.811 412.615 817.849 414.29 817.08C417.921 815.348 427.604 820.062 434.959 826.988C439.708 831.606 443.06 834.107 443.897 833.53C445.294 832.664 444.922 821.312 443.339 819.004C440.639 815.059 427.325 805.536 420.156 802.457C413.266 799.475 403.304 797.84 400.045 799.09Z" fill="#ffffff" fill-rule="nonzero" opacity="1" stroke="none"/>
<path d="M832.104 403.031C807.832 417.047 783.569 431.063 759.297 445.079C754.009 448.128 748.422 451.505 745.76 457.123C743.758 461.346 743.721 466.243 743.721 470.947C743.721 510.975 743.73 551.003 743.73 591.041C743.73 597.958 743.73 604.875 743.73 611.791C743.73 618.285 743.069 625.019 743.609 631.474C743.711 632.647 743.916 633.946 744.801 634.696C745.722 635.476 747.063 635.389 748.227 635.158C755.433 633.734 762.369 628.126 768.663 624.451C776.261 620.026 783.858 615.591 791.455 611.166C806.482 602.402 821.5 593.648 836.527 584.885C869.067 565.914 903.217 545.308 921.298 511.523C924.538 505.473 927.238 498.912 927.517 492.005C927.797 485.098 925.283 477.767 919.836 473.765C915.172 470.341 909.092 469.764 903.385 470.187C892.641 470.985 882.334 474.91 871.664 476.411C860.995 477.912 848.975 476.478 841.527 468.436C835.707 462.154 833.79 453.035 833.259 444.348C832.281 428.273 835.289 411.958 841.908 397.374C838.622 399.26 835.363 401.145 832.104 403.031ZM765.544 470.976C765.842 469.234 766.112 467.484 766.466 465.752M766.466 465.742C767.825 455.738 781.391 447.955 788.932 443.511C796.883 438.826 805.02 434.468 813.307 430.457C817.934 428.215 821.77 430.389 821.444 435.93C820.55 451.082 816.91 468.609 826.416 481.74C835.223 493.9 849.394 496.228 863.08 493.457C874.662 491.11 885.546 485.886 897.091 483.366C901.569 482.385 906.513 481.894 910.47 484.27C914.986 486.993 916.941 492.842 916.866 498.238C916.662 512.149 905.917 523.24 895.443 531.985C858.686 562.701 816.174 585.019 774.017 607.107C771.075 608.646 767.481 610.175 764.66 608.434C761.988 606.789 761.494 603.355 761.243 600.44C760.517 591.994 760.824 583.49 761.131 575.024C761.774 557.227 762.416 539.431 763.058 521.634C763.664 504.809 763.505 487.599 765.554 470.976" fill="#ffffff" fill-rule="nonzero" opacity="1" stroke="none"/>
<path d="M733.554 623.114C733.079 575.294 732.613 527.473 732.138 479.653C732.12 477.392 732.036 474.949 730.723 473.14C727.837 469.177 721.804 471.053 717.521 473.294C702.894 480.952 688.324 488.696 673.79 496.536C649.592 509.59 625.423 522.99 603.627 539.969C582.772 556.227 563.667 576.679 555.567 602.345C553.751 608.097 552.513 614.177 553.22 620.18C553.928 626.183 556.842 632.128 561.823 635.302C569.011 639.881 578.312 637.756 586.3 634.918C612.202 625.702 635.999 610.262 655.281 590.166C657.367 587.992 659.257 583.961 656.715 582.374C633.867 595.255 611.019 608.136 588.181 621.027C583.879 623.451 579.001 625.952 574.29 624.567C566.46 622.258 564.923 611.349 566.627 603.114C570.156 586.068 580.788 571.321 593.562 559.95C606.336 548.579 621.279 540.162 636.018 531.677C659.378 518.229 682.598 504.337 707.345 493.871C710.538 492.515 714.951 491.572 716.832 494.564C717.633 495.824 717.651 497.43 717.651 498.941C717.642 540.47 717.642 581.989 717.633 623.518C717.633 627.943 717.605 632.522 715.864 636.563C713.536 641.979 708.555 645.576 703.788 648.866C679.46 665.663 654.676 681.738 629.463 697.081C616.317 705.075 602.984 712.906 588.684 718.37C583.749 720.256 578.033 721.804 573.415 719.197C567.111 715.648 566.422 706.499 568.024 699.265C572.502 679.063 587.957 663.344 604.632 651.829C621.307 640.314 639.872 631.762 655.719 619.064C658.428 616.89 661.286 613.09 659.238 610.243C657.478 607.799 653.801 608.646 651.073 609.791C618.049 623.653 588.553 646.404 566.301 675.177C561.497 681.391 556.963 687.99 554.356 695.475C549.478 709.501 553.565 729.125 569.411 733.117C578.563 735.416 587.957 731.232 596.421 726.97C638.792 705.624 678.92 679.842 718.313 653.09C723.117 649.828 728.098 646.336 730.816 641.103C733.582 635.774 733.591 629.425 733.535 623.383C733.563 623.306 733.563 623.21 733.554 623.114Z" fill="#ffffff" fill-rule="nonzero" opacity="1" stroke="none"/>
<path d="M929.799 586.684C928.504 581.45 925.832 576.794 921.494 573.658C912.118 566.886 899.298 569.83 888.516 573.764C865.101 582.297 842.998 594.216 820.997 606.096C807.572 613.34 794.137 620.594 780.711 627.837C774.966 630.935 769.157 634.09 764.334 638.564C748.879 652.916 747.072 676.86 746.346 698.313C744.978 738.37 743.609 778.427 742.24 818.484C741.998 825.487 741.561 832.51 741.523 839.513C741.505 843.505 743.488 850.432 747.938 851.336C750.797 851.913 753.618 849.662 754.791 846.911C755.964 844.16 755.889 841.033 755.806 838.032C754.297 784.314 756.02 730.501 760.954 677.005C761.625 669.703 762.444 662.132 766.149 655.879C770.693 648.193 778.821 643.71 786.558 639.583C819.247 622.152 851.926 604.721 884.615 587.299C892.603 583.038 902.78 578.901 909.977 584.481C917.49 590.301 915.935 602.499 911.755 611.176C903.599 628.078 888.861 640.622 873.266 650.473C857.671 660.324 840.847 668.02 825.531 678.332C820.355 681.815 814.806 686.711 815.15 693.089C846.051 681.988 875.202 665.538 900.489 644.095C911.978 634.35 922.983 623.095 928.262 608.742C930.776 601.835 931.53 593.725 929.799 586.684Z" fill="#ffffff" fill-rule="nonzero" opacity="1" stroke="none"/>
<path d="M932.722 678.361C932.555 673.878 931.745 669.395 929.873 665.365C927.676 660.632 923.905 656.553 919.12 654.792C913.133 652.589 906.476 654.205 900.517 656.505C879.792 664.48 862.736 680.064 843.286 690.953C838.315 693.743 833.147 696.244 828.641 699.775C824.135 703.305 820.243 708.048 818.93 713.733C840.344 708.404 857.838 693.022 876.981 681.776C884.662 677.264 892.864 673.33 901.644 672.3C905.843 671.81 910.405 672.098 913.831 674.657C918.319 678.015 919.669 684.373 919.296 690.078C918.468 702.892 910.815 714.234 901.858 723.142C879.904 744.998 849.766 755.859 826.081 775.676C823.679 777.686 821.519 780.053 821.034 783.304C820.541 786.565 822.775 788.518 826.071 787.816C828.231 787.354 830.019 785.873 831.76 784.468C844.804 773.954 859.496 765.892 873.778 757.263C888.06 748.634 902.175 739.245 913.347 726.634C924.52 714.022 932.62 697.774 932.75 680.689C932.759 679.9 932.75 679.131 932.722 678.361Z" fill="#ffffff" fill-rule="nonzero" opacity="1" stroke="none"/>
<path d="M733.945 666.721C733.842 665.403 733.535 664.133 732.706 663.152C730.276 660.276 725.761 662.084 722.595 664.066C690.195 684.306 657.413 703.883 624.268 722.795C600.443 736.388 575.184 750.885 561.944 775.454C556.47 785.613 553.276 797.638 554.887 809.288C556.246 819.148 561.674 828.142 571.971 829.46C579.802 830.461 587.538 827.344 594.735 823.977C614.176 814.867 632.545 803.516 650.803 792.097C653.596 790.346 656.473 788.528 658.409 785.805C660.346 783.083 661.147 779.216 659.48 776.311C632.806 788.297 608.682 806.623 580.621 814.521C577.269 815.463 573.275 816.118 570.649 813.761C569.206 812.462 568.499 810.5 568.015 808.585C564.225 793.636 570.5 777.494 580.518 766.008C590.536 754.522 603.86 746.806 616.931 739.293C648.419 721.198 679.898 703.103 711.386 685.008C713.173 683.979 715.445 682.959 717.139 684.162C718.313 684.989 718.685 686.576 718.936 688.019C721.366 701.91 720.836 716.157 720.296 730.27C718.648 773.425 717 816.589 715.343 859.744C715.277 861.495 715.249 863.399 716.274 864.794C717.177 866.035 718.759 866.603 720.268 866.622C724.197 866.68 727.623 863.486 729.187 859.763C730.751 856.04 730.844 851.855 730.919 847.796C731.943 788.162 732.967 728.529 733.982 668.885C734.001 668.174 734.001 667.442 733.945 666.721Z" fill="#ffffff" fill-rule="nonzero" opacity="1" stroke="none"/>
<path d="M567.009 912.778C566.72 912.538 566.441 912.278 566.171 911.999C563.918 909.632 563.061 906.208 562.782 902.908C562.158 895.414 564.123 887.872 567.307 881.1C574.951 864.852 589.205 852.981 604.111 843.534C619.017 834.097 635.05 826.497 649.118 815.771C654.033 812.02 659.089 807.113 659.275 800.803C637.582 809.518 617.183 821.399 597.854 834.79C589.224 840.764 580.742 847.18 573.657 855.088C566.404 863.188 561.544 873.067 557.429 883.168C553.732 892.24 551.228 902.1 552.261 912.018C552.745 916.722 554.198 921.609 557.671 924.697C561.581 928.18 567.223 928.661 572.363 928.17C582.455 927.198 592.026 923.168 601.15 918.608C613.57 912.403 625.46 905.14 637.554 898.271C641.809 895.857 646.129 893.452 649.816 890.181C653.503 886.91 656.547 882.629 657.488 877.704C630.785 886.429 608.925 907.882 581.636 914.365C576.692 915.549 570.873 915.953 567.009 912.778Z" fill="#ffffff" fill-rule="nonzero" opacity="1" stroke="none"/>
</g>
</g>
</svg>
