<?xml version="1.0" standalone="no"?>
<!DOCTYPE svg PUBLIC "-//W3C//DTD SVG 20010904//EN"
 "http://www.w3.org/TR/2001/REC-SVG-20010904/DTD/svg10.dtd">
<svg version="1.0" xmlns="http://www.w3.org/2000/svg"
 width="2362.000000pt" height="1317.000000pt" viewBox="0 0 2362.000000 1317.000000"
 preserveAspectRatio="xMidYMid meet">

<g transform="translate(0.000000,1317.000000) scale(0.100000,-0.100000)"
fill="#cb5124" stroke="none">
<path d="M6215 12554 c-577 -52 -1114 -180 -1620 -387 -227 -92 -631 -297
-795 -402 -203 -129 -363 -238 -430 -292 -8 -6 -47 -37 -87 -68 -116 -91 -128
-162 -44 -238 22 -19 52 -38 69 -42 32 -7 94 14 121 41 28 27 75 65 101 82 14
9 29 22 33 29 4 7 13 13 19 13 5 0 28 14 50 32 61 48 170 122 318 215 30 20
67 44 82 54 15 11 29 19 32 19 3 0 39 20 80 44 71 42 384 199 496 249 63 28
255 101 380 145 377 132 801 222 1245 264 183 17 726 17 910 0 433 -41 876
-135 1245 -264 126 -44 317 -118 380 -145 112 -50 425 -207 496 -249 41 -24
77 -44 80 -44 3 0 17 -9 32 -19 15 -10 61 -40 102 -66 135 -85 237 -155 298
-203 22 -18 45 -32 50 -32 6 0 15 -6 19 -13 4 -7 19 -20 33 -29 23 -15 61 -46
100 -81 8 -7 37 -31 65 -53 27 -21 56 -46 65 -54 9 -8 58 -53 109 -100 119
-108 213 -202 321 -321 47 -51 92 -100 100 -109 8 -9 33 -38 54 -65 22 -28 46
-57 53 -65 52 -58 66 -75 81 -98 9 -15 22 -31 29 -35 7 -4 13 -13 13 -19 0 -5
14 -28 32 -50 48 -61 118 -163 203 -298 26 -41 56 -87 66 -102 10 -15 19 -29
19 -32 0 -3 14 -29 31 -58 51 -86 161 -299 199 -383 13 -27 35 -77 51 -110 60
-130 159 -398 205 -555 14 -47 31 -103 39 -125 54 -160 143 -635 172 -919 21
-204 24 -769 5 -961 -56 -554 -170 -1030 -362 -1510 -60 -151 -223 -488 -294
-609 -23 -39 -46 -78 -50 -86 -9 -21 -23 -43 -80 -130 -107 -165 -160 -242
-204 -298 -18 -22 -32 -45 -32 -50 0 -6 -6 -15 -13 -19 -7 -4 -20 -19 -29 -33
-15 -23 -46 -61 -81 -100 -7 -8 -31 -37 -53 -65 -21 -27 -46 -56 -54 -65 -186
-198 -220 -244 -220 -296 0 -62 82 -144 144 -144 50 0 76 21 207 170 714 809
1177 1810 1323 2865 44 324 51 423 50 795 0 368 -9 500 -55 815 -64 437 -207
946 -374 1330 -64 147 -90 202 -165 350 -275 540 -601 984 -1035 1413 -235
231 -338 320 -645 550 -359 269 -948 574 -1420 734 -601 204 -1183 299 -1819
297 -163 -1 -363 -7 -446 -15z"/>
<path d="M6425 10883 c-726 -62 -1383 -311 -1934 -731 -100 -76 -118 -96 -127
-141 -9 -47 10 -82 100 -178 92 -99 142 -123 198 -100 20 8 61 35 91 59 531
420 1257 667 1964 668 1321 1 2510 -805 2997 -2030 337 -850 294 -1821 -116
-2635 -134 -267 -261 -455 -461 -683 -97 -111 -106 -126 -106 -172 0 -44 10
-63 83 -145 131 -148 173 -143 331 38 492 565 789 1236 881 1997 25 201 25
619 1 820 -115 948 -559 1777 -1277 2387 -19 17 -84 67 -145 113 -552 417
-1161 654 -1858 725 -127 13 -508 18 -622 8z"/>
<path d="M1084 9860 c-50 -11 -90 -46 -109 -92 -23 -58 -42 -461 -25 -541 13
-64 55 -155 102 -219 62 -86 2739 -3007 2790 -3044 73 -54 152 -83 223 -84 47
0 266 55 1000 249 517 136 941 247 943 246 1 -1 -68 -528 -154 -1171 -123
-921 -155 -1185 -152 -1246 4 -66 11 -90 46 -160 22 -46 65 -110 94 -143 29
-33 636 -710 1349 -1505 875 -975 1315 -1459 1355 -1489 137 -100 192 -114
449 -109 170 3 194 5 230 24 45 23 82 86 87 144 3 35 -39 80 -1467 1600 -808
861 -1494 1591 -1523 1622 l-54 57 191 1456 192 1456 -25 44 c-28 48 -82 96
-133 120 -33 16 -54 11 -1111 -245 -592 -144 -1118 -272 -1169 -284 l-92 -24
-1477 1674 c-1263 1431 -1482 1674 -1503 1673 -15 -1 -40 -4 -57 -9z"/>
<path d="M6420 9109 c-85 -11 -125 -20 -330 -80 -167 -49 -465 -206 -511 -270
-22 -31 -28 -85 -12 -113 5 -9 67 -80 138 -158 127 -138 178 -177 230 -178 11
0 79 29 150 65 238 118 475 165 723 144 326 -28 618 -163 847 -393 103 -103
197 -230 255 -346 143 -287 181 -627 104 -933 -42 -168 -87 -270 -183 -422
-57 -88 -65 -135 -33 -192 20 -37 284 -325 318 -348 29 -19 77 -19 113 -1 51
27 194 237 267 391 59 125 87 194 107 260 74 246 87 335 87 615 0 230 -9 337
-40 452 -10 40 -22 84 -25 98 -17 65 -48 156 -56 165 -5 5 -9 15 -9 23 0 23
-103 231 -158 319 -113 183 -301 388 -476 522 -193 147 -442 273 -636 321 -25
7 -72 19 -105 27 -132 33 -231 42 -465 41 -129 0 -264 -4 -300 -9z"/>
<path d="M16482 8728 c-17 -17 -17 -2049 0 -2066 8 -8 46 -12 103 -12 57 0 95
4 103 12 9 9 12 251 12 1029 0 912 -2 1019 -16 1033 -19 20 -183 23 -202 4z"/>
<path d="M14182 8508 c-8 -8 -12 -64 -12 -185 l0 -173 -78 0 c-47 0 -83 -5
-90 -12 -8 -8 -12 -45 -12 -99 0 -112 6 -119 105 -119 l74 0 3 -522 c4 -462 6
-529 21 -575 24 -72 73 -132 132 -162 44 -23 63 -26 183 -29 93 -3 137 0 148
8 19 16 20 193 2 207 -7 6 -51 13 -96 16 -98 6 -124 23 -141 92 -7 29 -11 203
-11 504 l0 461 99 0 c128 0 131 2 131 119 0 54 -4 91 -12 99 -8 8 -48 12 -115
12 l-103 0 0 169 c0 141 -3 172 -16 185 -19 20 -193 23 -212 4z"/>
<path d="M15335 8174 c-138 -29 -262 -107 -357 -226 -113 -140 -162 -306 -162
-548 0 -155 15 -247 59 -366 77 -206 262 -365 475 -410 117 -25 300 -15 409
21 154 52 290 176 341 312 52 137 37 163 -90 163 -41 0 -80 -4 -87 -8 -6 -4
-21 -32 -32 -63 -27 -70 -77 -119 -165 -160 -62 -29 -82 -33 -176 -37 -165 -7
-265 30 -355 130 -68 76 -135 232 -135 315 l0 23 534 0 c473 0 536 2 550 16
12 12 16 38 16 115 0 305 -136 557 -361 668 -138 68 -306 88 -464 55z m336
-262 c113 -54 197 -163 234 -303 l13 -49 -430 0 -430 0 6 25 c26 104 100 233
159 277 88 68 158 88 287 84 83 -2 104 -7 161 -34z"/>
<path d="M17525 8174 c-138 -29 -262 -107 -357 -226 -113 -140 -162 -306 -162
-548 0 -155 15 -247 59 -366 77 -206 262 -365 475 -410 117 -25 300 -15 409
21 154 52 290 176 341 312 52 137 37 163 -90 163 -41 0 -80 -4 -87 -8 -6 -4
-21 -32 -32 -63 -27 -70 -77 -119 -165 -160 -62 -29 -82 -33 -176 -37 -165 -7
-265 30 -355 130 -68 76 -135 232 -135 315 l0 23 534 0 c473 0 536 2 550 16
12 12 16 38 16 115 0 305 -136 557 -361 668 -138 68 -306 88 -464 55z m336
-262 c113 -54 197 -163 234 -303 l13 -49 -430 0 -430 0 6 25 c26 104 100 233
159 277 88 68 158 88 287 84 83 -2 104 -7 161 -34z"/>
<path d="M19095 8175 c-255 -56 -425 -231 -496 -510 -20 -77 -24 -114 -23
-265 0 -148 3 -189 22 -265 84 -336 317 -525 647 -525 117 0 228 24 308 67
118 64 227 211 258 347 17 80 10 86 -106 86 -103 0 -106 -2 -125 -67 -38 -127
-173 -199 -359 -191 -82 3 -106 8 -163 35 -157 74 -235 222 -245 468 -10 231
40 391 152 493 73 67 143 94 262 100 190 9 323 -69 357 -213 13 -51 22 -55
117 -55 123 0 134 14 103 121 -56 192 -210 332 -409 374 -85 18 -219 18 -300
0z"/>
<path d="M20491 8180 c-278 -59 -453 -245 -518 -551 -24 -115 -24 -343 1 -459
62 -294 238 -489 494 -546 108 -24 291 -15 389 19 104 36 158 70 238 151 81
82 131 169 172 301 26 87 27 98 27 305 0 207 -1 218 -27 305 -73 234 -203 378
-406 448 -71 25 -104 30 -205 33 -67 2 -141 -1 -165 -6z m322 -268 c169 -79
251 -245 251 -512 0 -263 -83 -434 -249 -516 -57 -27 -67 -29 -185 -29 -115 0
-130 2 -182 27 -115 54 -194 157 -235 309 -24 90 -24 328 0 419 47 173 133
274 277 322 43 14 78 17 156 15 88 -3 109 -8 167 -35z"/>
<path d="M21928 8180 c-181 -33 -305 -117 -367 -249 -23 -49 -26 -69 -26 -156
0 -129 19 -186 87 -260 65 -71 169 -123 343 -170 396 -109 473 -147 490 -244
17 -103 -52 -194 -175 -232 -61 -18 -89 -21 -198 -17 -113 3 -134 7 -187 32
-33 15 -71 37 -84 49 -26 24 -71 112 -71 139 0 32 -40 48 -122 48 -65 0 -81
-3 -98 -20 -24 -24 -23 -18 -5 -103 38 -180 167 -311 360 -363 90 -24 312 -30
405 -10 168 35 309 139 373 273 27 59 32 81 35 169 6 140 -11 195 -83 272 -86
93 -161 127 -455 208 -192 53 -313 106 -354 154 -24 29 -28 41 -24 81 6 57 30
91 88 123 66 36 154 50 281 44 96 -5 118 -9 166 -34 43 -22 61 -38 75 -69 47
-99 33 -90 137 -93 117 -4 125 2 118 80 -10 111 -86 227 -184 280 -87 48 -185
69 -338 73 -77 2 -161 0 -187 -5z"/>
<path d="M19745 5444 c-236 -31 -393 -97 -524 -219 -131 -124 -215 -272 -264
-465 -19 -74 -22 -113 -22 -295 0 -223 10 -299 59 -443 107 -312 352 -509 721
-578 206 -39 677 -15 743 37 14 11 36 36 50 55 l24 35 -22 132 c-24 140 -34
162 -94 205 -33 23 -35 23 -142 11 -263 -28 -457 13 -565 121 -164 163 -193
577 -56 783 101 151 356 201 648 127 72 -19 82 -19 108 -6 60 32 75 63 100
209 13 77 20 148 17 163 -4 15 -24 44 -44 64 -35 35 -43 38 -132 49 -270 33
-438 38 -605 15z"/>
<path d="M17172 5400 c-18 -11 -41 -34 -52 -52 -19 -32 -20 -52 -20 -908 0
-856 1 -876 20 -908 11 -18 34 -41 52 -52 32 -20 45 -21 518 -17 l485 3 100
27 c171 46 290 118 383 230 134 163 164 413 74 607 -33 69 -131 170 -201 205
l-54 27 30 24 c17 13 49 55 72 93 112 184 85 425 -64 573 -63 64 -141 108
-245 139 -73 22 -90 23 -570 26 -483 4 -496 3 -528 -17z m794 -411 c65 -31 94
-79 94 -153 0 -72 -28 -120 -92 -156 -34 -19 -61 -24 -145 -28 l-103 -5 0 188
0 188 101 -6 c73 -5 113 -12 145 -28z m106 -768 c57 -27 88 -67 95 -121 8 -58
-5 -107 -38 -144 -45 -52 -102 -68 -266 -73 l-143 -6 0 188 0 187 153 -4 c134
-3 158 -6 199 -27z"/>
<path d="M20832 5400 c-18 -11 -41 -34 -52 -52 -19 -32 -20 -52 -20 -908 0
-856 1 -876 20 -908 39 -64 67 -72 240 -72 136 0 159 2 187 20 70 42 67 22 73
554 l5 480 343 -481 c188 -265 359 -496 379 -513 62 -55 85 -60 275 -60 193 0
218 7 258 72 19 32 20 52 20 908 0 856 -1 876 -20 908 -39 64 -67 72 -240 72
-136 0 -159 -2 -187 -20 -70 -42 -67 -20 -73 -567 l-5 -493 -340 482 c-187
265 -351 495 -364 510 -13 16 -47 42 -75 58 -51 30 -51 30 -221 30 -152 0
-173 -2 -203 -20z"/>
</g>
</svg>
