<svg xmlns="http://www.w3.org/2000/svg" viewBox="0 0 247.18 225.47"><defs><style>.cls-1{fill:#648bcc;}.cls-2{fill:#f7eac1;}.cls-3{fill:#040308;}.cls-4{fill:#fff;}.cls-5{fill:#f8eac1;}.cls-6,.cls-7,.cls-8,.cls-9{fill:none;stroke-width:2.27px;}.cls-6,.cls-7,.cls-9{stroke:#000;}.cls-6,.cls-9{stroke-linejoin:round;}.cls-7,.cls-8{stroke-miterlimit:10;}.cls-8{stroke:#040308;}.cls-9{stroke-linecap:round;}</style></defs><g id="Capa_2" data-name="Capa 2"><g id="DIBUIXOS"><polygon class="cls-1" points="224.32 118.94 246.11 145.97 153.99 224.59 129.44 200.58 129.44 193.69 129.82 193.4 224.32 118.94"/><path class="cls-1" d="M220.19,88.33l4.13,30.61-4.5-1.56a6.83,6.83,0,0,1-1.47-2.94,4,4,0,0,1,.18-3.12,1.6,1.6,0,0,1,.18-.25l1.17-.92.31-.13V88.33Z"/><path class="cls-1" d="M224.32,118.94l-94.5,74.46-.38-.48-1.5-11.08,90.77-70.77a1.6,1.6,0,0,0-.18.25,4,4,0,0,0-.18,3.12,6.83,6.83,0,0,0,1.47,2.94Z"/><path class="cls-1" d="M220.19,89.08v20.83l-.31.24a3.1,3.1,0,0,0-1.17.92l-90.77,70.77-2.64-19.53,94.58-73.74Z"/><path class="cls-1" d="M189.15,36l30.73,52.57L125.3,162.31V182.7h-.23V161.12l-31.2-53.36-.05,0,94.11-71.13.38-.83.68.32Zm-5.24,64.79c3.42-4.5.28-11.6-2.31-17.45-2.44-5.52-4.19-9.48-8.22-10.54a9.18,9.18,0,0,0-9.23,3c-1.62,2.11-1.51,4.47-1.32,7.91.18,3,.61,10.4,6.26,16.13,1.82,1.85,4.1,4.16,7.57,4.28A8.94,8.94,0,0,0,183.91,100.79Zm-29.19,22.44c3.82-5,.31-13-2.57-19.49C149.42,97.59,147.46,93.16,143,92a10.24,10.24,0,0,0-10.31,3.3c-1.8,2.36-1.69,5-1.47,8.83.19,3.34.68,11.62,7,18,2,2.06,4.58,4.65,8.46,4.79A10,10,0,0,0,154.72,123.23Z"/><path class="cls-1" d="M219.88,110.15l-1.17.92A3.1,3.1,0,0,1,219.88,110.15Z"/><path class="cls-1" d="M188.31,35.78l-.38.83L93.82,107.74l-76-35.65L111.94,1Zm-47.55,4.3v-12l-22.82-5.31L65.14,61.19v12l19.33,7.56Z"/><path class="cls-1" d="M181.6,83.34c2.59,5.85,5.73,13,2.31,17.45a8.94,8.94,0,0,1-7.25,3.29c-3.47-.12-5.75-2.43-7.57-4.28-5.65-5.73-6.08-13.15-6.26-16.13-.19-3.44-.3-5.8,1.32-7.91a9.18,9.18,0,0,1,9.23-3C177.41,73.86,179.16,77.82,181.6,83.34Z"/><path class="cls-1" d="M152.15,103.74c2.88,6.54,6.39,14.47,2.57,19.49a10,10,0,0,1-8.09,3.69c-3.88-.14-6.43-2.73-8.46-4.79-6.31-6.4-6.8-14.68-7-18-.22-3.83-.33-6.47,1.47-8.83A10.24,10.24,0,0,1,143,92C147.46,93.16,149.42,97.59,152.15,103.74Z"/><polygon class="cls-1" points="153.99 224.59 129.44 207.69 129.44 200.58 153.99 224.59"/><polygon class="cls-1" points="140.76 28.12 140.76 40.08 98.72 58.47 140.76 28.12"/><polygon class="cls-1" points="140.76 28.12 98.72 58.47 79.58 66.84 65.14 61.19 117.94 22.81 140.76 28.12"/><polygon class="cls-1" points="140.76 40.08 84.47 80.71 84.47 68.75 98.72 58.47 140.76 40.08"/><path class="cls-1" d="M129.44,192.92l.38.48-.38.29v14L92.12,184.75c.09-.48.18-.9.25-1.25.73-3.9.49-6.77.08-11.95a85.17,85.17,0,0,0-2.85-16.18,83.87,83.87,0,0,0-5.5-14.87l41,42.2h.23V184a3.21,3.21,0,0,0-1.65,1.28,4,4,0,0,0-.18,3.13,6.94,6.94,0,0,0,1.47,3Z"/><path class="cls-1" d="M127.94,181.84l1.5,11.08-4.5-1.55a6.94,6.94,0,0,1-1.47-3,4,4,0,0,1,.18-3.13A3.21,3.21,0,0,1,125.3,184v-.12Z"/><polygon class="cls-1" points="125.3 162.31 127.94 181.84 125.3 183.89 125.3 182.7 125.3 162.31"/><path class="cls-1" d="M93.82,107.74l.05,0,31.2,53.36V182.7l-41-42.2a68.4,68.4,0,0,0-11.6-16.85A63.88,63.88,0,0,0,54,109.48L17.78,72.14l.07,0Z"/><polygon class="cls-1" points="98.72 58.47 84.47 68.75 79.58 66.84 98.72 58.47"/><path class="cls-1" d="M92.12,184.75a28.73,28.73,0,0,1-7.76,14.47,28.21,28.21,0,0,1-11.31,6.62c-11.52,3.92-22,.57-25.38-.55-11.87-4-18.56-11.85-26.29-21a84,84,0,0,1-15.9-26.47C.15,143.23,1,132.23,1.25,129.9c.35-3.79.62-6.37,2-9.56,2.78-6.3,7.9-10.27,12.46-12.66a36.86,36.86,0,0,1,8.78-3.34c8.87-2,16,.2,21.51,1.93a56.27,56.27,0,0,1,8,3.21l30.08,31a83.87,83.87,0,0,1,5.5,14.87,85.17,85.17,0,0,1,2.85,16.18c.41,5.18.65,8-.08,11.95C92.3,183.85,92.21,184.27,92.12,184.75Zm-9.68.4a30.89,30.89,0,0,0,.27-7.72,71.24,71.24,0,0,0-4.14-21C74.7,146,69.26,139.31,64.22,133.12c-5.15-6.34-8.5-10.46-14.61-14.44a42.58,42.58,0,0,0-21.24-7.44c-5.27-.29-11.26-.62-16.27,3-6.9,5-7.58,14.36-8,20.12-1.36,18.82,8.36,33.47,12.7,40,6.56,9.87,13.63,15.65,20.13,21a38.8,38.8,0,0,0,8.55,5.52,32.61,32.61,0,0,0,15.45,3.31A22.33,22.33,0,0,0,71.4,201.7a21.69,21.69,0,0,0,7.45-6.89A23.72,23.72,0,0,0,82.44,185.15Z"/><polygon class="cls-1" points="84.47 68.75 84.47 80.71 65.14 73.15 79.58 66.84 84.47 68.75"/><path class="cls-1" d="M84.1,140.5,54,109.48A63.88,63.88,0,0,1,72.5,123.65,68.4,68.4,0,0,1,84.1,140.5Z"/><path class="cls-1" d="M82.71,177.43a30.89,30.89,0,0,1-.27,7.72,23.72,23.72,0,0,1-3.59,9.66,21.69,21.69,0,0,1-7.45,6.89,22.33,22.33,0,0,1-10.48,2.49,32.61,32.61,0,0,1-15.45-3.31,38.8,38.8,0,0,1-8.55-5.52c-6.5-5.3-13.57-11.08-20.13-21-4.34-6.54-14.06-21.19-12.7-40,.43-5.76,1.11-15.11,8-20.12,5-3.66,11-3.33,16.27-3a42.58,42.58,0,0,1,21.24,7.44c6.11,4,9.46,8.1,14.61,14.44,5,6.19,10.48,12.86,14.35,23.35A71.24,71.24,0,0,1,82.71,177.43Zm-27-11a13,13,0,0,0,.55-5,18.71,18.71,0,0,0-3.12-9.19,17.54,17.54,0,0,0-7.54-7.17c-1.62-.75-5.77-2.65-9.38-.74a8.66,8.66,0,0,0-3.68,4.22c-3.2,6.66.09,14,.73,15.45a17.88,17.88,0,0,0,6.26,8.09,10.64,10.64,0,0,0,6.07,2.21,10.39,10.39,0,0,0,6.62-2.57A11.44,11.44,0,0,0,55.68,166.4Z"/><polygon class="cls-1" points="79.58 66.84 65.14 73.15 65.14 61.19 79.58 66.84"/><path class="cls-1" d="M56.23,161.44a13,13,0,0,1-.55,5,11.44,11.44,0,0,1-3.49,5.34,10.39,10.39,0,0,1-6.62,2.57,10.64,10.64,0,0,1-6.07-2.21A17.88,17.88,0,0,1,33.24,164c-.64-1.43-3.93-8.79-.73-15.45a8.66,8.66,0,0,1,3.68-4.22c3.61-1.91,7.76,0,9.38.74a17.54,17.54,0,0,1,7.54,7.17A18.71,18.71,0,0,1,56.23,161.44Zm-9.19.37c1.76-1.48,1.09-4.38.91-5.15a6,6,0,0,0-2.38-3.86c-.43-.29-2.61-1.71-4.42-.73a4,4,0,0,0-1.74,2.57,6.38,6.38,0,0,0,.64,5c.21.36,1.64,2.77,4.23,2.95A3.88,3.88,0,0,0,47,161.81Z"/><path class="cls-1" d="M17.78,72.14,54,109.48a56.27,56.27,0,0,0-8-3.21c-5.48-1.73-12.64-4-21.51-1.93a36.86,36.86,0,0,0-8.78,3.34l-.47-.86,1.6-23.65.76-.44V72.26Z"/><path class="cls-1" d="M48,156.66c.18.77.85,3.67-.91,5.15a3.88,3.88,0,0,1-2.76.73c-2.59-.18-4-2.59-4.23-2.95a6.38,6.38,0,0,1-.64-5,4,4,0,0,1,1.74-2.57c1.81-1,4,.44,4.42.73A6,6,0,0,1,48,156.66Z"/><polygon class="cls-1" points="17.85 72.09 17.78 72.14 17.62 71.98 17.85 72.09"/><polygon class="cls-1" points="17.62 72.26 17.62 82.73 16.86 83.17 17.62 71.98 17.62 72.26"/><polygon class="cls-1" points="16.86 83.17 15.27 106.82 15.27 84.11 16.86 83.17"/><path class="cls-1" d="M154.68,225.4l-1.39-1.63,91.33-77.94-20.47-25.39-93.64,73.78v6.36h-2.14v-6.89a1.06,1.06,0,0,1,.42-.85l.37-.29,94.5-74.45a1.08,1.08,0,0,1,1.5.17l21.79,27a1.08,1.08,0,0,1-.14,1.49Z"/><path class="cls-1" d="M224,120l-4.5-1.57a1,1,0,0,1-.47-.32,8,8,0,0,1-1.7-3.4,5.05,5.05,0,0,1,.32-3.92c.09-.13.17-.26.27-.38a4.15,4.15,0,0,1,1.22-1v-21h2.15V110a1.06,1.06,0,0,1-.7,1l-.23.11a2.15,2.15,0,0,0-.78.59l-.11.16a3.11,3.11,0,0,0-.05,2.31,5.69,5.69,0,0,0,1.07,2.28l4.22,1.46Z"/><polygon class="cls-1" points="16.34 106.82 14.19 106.82 14.19 83.5 16.55 82.12 16.55 71.98 18.69 71.98 18.69 83.35 16.34 84.73 16.34 106.82"/><path class="cls-1" d="M44.71,163.1l-.42,0a6.3,6.3,0,0,1-4.7-3.19,7,7,0,0,1-.7-5.41,4.51,4.51,0,0,1,2-2.89c1.94-1,4.13.19,5,.76a6.6,6.6,0,0,1,2.61,4.19c.6,2.67.23,4.57-1.1,5.68h0A4.13,4.13,0,0,1,44.71,163.1Zm-2.17-10.83a2.45,2.45,0,0,0-1.14.27,3.49,3.49,0,0,0-1.47,2.25,5.93,5.93,0,0,0,.57,4.52,5.28,5.28,0,0,0,3.82,2.7,3.37,3.37,0,0,0,2.37-.62c1-.83,1.24-2.37.74-4.59a5.51,5.51,0,0,0-2.17-3.55A5.31,5.31,0,0,0,42.54,152.27Z"/><polygon class="cls-1" points="125.96 163.15 124.64 161.46 219.52 87.48 220.85 89.17 220.55 89.41 125.96 163.15"/><path class="cls-1" d="M129.09,193.94l-4.5-1.56a1.07,1.07,0,0,1-.48-.33,8,8,0,0,1-1.69-3.4,5,5,0,0,1,.32-3.92,4,4,0,0,1,1.49-1.41v-21h2.15V184a1.09,1.09,0,0,1-.71,1,2.06,2.06,0,0,0-1.1.83,3.06,3.06,0,0,0-.06,2.33,5.71,5.71,0,0,0,1.07,2.27l4.21,1.46Z"/><polygon class="cls-1" points="125.96 184.74 124.64 183.04 127.28 180.99 219.52 109.07 220.85 110.75 219.37 111.91 125.96 184.74"/><rect class="cls-1" x="81.9" y="71.11" width="117.96" height="2.14" transform="translate(-15.03 99.53) rotate(-37.08)"/><path class="cls-1" d="M126.14,182.7H124V161.41L93.11,108.59,17.16,73,18.08,71l.23.11,76,35.65a1.17,1.17,0,0,1,.51.45L126,160.58a1,1,0,0,1,.15.54Z"/><path class="cls-1" d="M61.67,208.77a61.83,61.83,0,0,1-14.33-2.46c-12.15-4.06-18.91-12-26.75-21.25A85.63,85.63,0,0,1,4.47,158.22C-.5,144.56-.18,133.79.19,129.8s.66-6.6,2.1-9.89c3-6.86,8.7-11,12.94-13.18a38.62,38.62,0,0,1,9-3.44c9.22-2.1,16.65.25,22.07,2a57.53,57.53,0,0,1,8.15,3.27,64.63,64.63,0,0,1,18.79,14.4A69.6,69.6,0,0,1,85.06,140a84.3,84.3,0,0,1,5.57,15.06,85.94,85.94,0,0,1,2.89,16.39v.13c.4,5.05.64,8.09-.11,12.1,0,.25-.11.55-.17.88l6.11,5.88a32.25,32.25,0,0,1-11,12.76,34.71,34.71,0,0,1-13.62,5.11A48.44,48.44,0,0,1,61.67,208.77ZM31.6,104.61a31.2,31.2,0,0,0-6.85.77,36.8,36.8,0,0,0-8.52,3.24h0c-3.93,2.07-9.2,5.86-12,12.15-1.31,3-1.57,5.34-1.93,9.23s-.66,14.23,4.16,27.49A83.73,83.73,0,0,0,22.2,183.64c7.65,9,14.24,16.77,25.81,20.63,8.84,2.94,17.15,3.13,24.69.56a26.16,26.16,0,0,0,18.37-20.31l.07-.36c.07-.32.13-.61.17-.86.7-3.72.48-6.49.08-11.53v-.13a83.24,83.24,0,0,0-2.81-16A82.51,82.51,0,0,0,83.14,141a67.39,67.39,0,0,0-11.42-16.58,62.58,62.58,0,0,0-18.18-14,56,56,0,0,0-7.84-3.15A45.6,45.6,0,0,0,31.6,104.61Z"/><path class="cls-1" d="M59.63,205.29A34,34,0,0,1,45,201.86a40.2,40.2,0,0,1-8.77-5.67C29.83,191,22.55,185,15.9,175,11.63,168.58,1.64,153.54,3,134.32c.42-5.84,1.14-15.61,8.44-20.91,5.33-3.88,11.51-3.54,17-3.24a43.67,43.67,0,0,1,21.76,7.62c6.27,4.07,9.69,8.28,14.87,14.65,5,6.14,10.6,13,14.52,23.66a72.42,72.42,0,0,1,4.2,21.24h0a32.18,32.18,0,0,1-.29,8,24.76,24.76,0,0,1-3.75,10.08,22.83,22.83,0,0,1-7.83,7.24A23.32,23.32,0,0,1,61,205.26ZM23.87,112.15c-3.83,0-7.76.53-11.14,3-6.5,4.72-7.17,13.87-7.57,19.33-1.33,18.49,8.38,33.1,12.52,39.34,6.48,9.76,13.62,15.58,19.92,20.72a38.25,38.25,0,0,0,8.32,5.38,31.72,31.72,0,0,0,14.95,3.21,21.13,21.13,0,0,0,10-2.36A20.8,20.8,0,0,0,78,194.22,22.63,22.63,0,0,0,81.38,185a30.22,30.22,0,0,0,.26-7.46h0a70.48,70.48,0,0,0-4.08-20.66c-3.79-10.29-9-16.74-14.12-23S55,123.47,49,119.58a41.71,41.71,0,0,0-20.71-7.27C26.87,112.23,25.37,112.15,23.87,112.15Z"/><polygon class="cls-1" points="219.26 89.62 218.96 89.11 188.07 36.28 189.91 35.18 190.07 35.45 221.11 88.54 219.26 89.62"/><path class="cls-1" d="M128.88,208.6,91.56,185.67l.55-.91v-1.08h0a1.1,1.1,0,0,1,.56.16L130,206.78Z"/><polygon class="cls-1" points="153.38 225.47 128.37 208.25 128.37 200.58 130.51 200.58 130.51 207.13 154.59 223.7 153.38 225.47"/><polygon class="cls-1" points="188.54 37.07 187.86 36.76 111.5 1.95 112.39 0 189.44 35.12 188.54 37.07"/><polygon class="cls-1" points="18.25 73.13 16.99 71.4 17.15 71.28 111.29 0.12 112.59 1.83 18.25 73.13"/><path class="cls-1" d="M84.47,81.78a1,1,0,0,1-.39-.07L64.75,74.15l.78-2L84.32,79.5l55.82-40.29L141.39,41,85.1,81.58A1.12,1.12,0,0,1,84.47,81.78Z"/><rect class="cls-1" x="139.69" y="28.12" width="2.14" height="11.96"/><rect class="cls-1" x="83.4" y="68.75" width="2.14" height="11.96"/><rect class="cls-1" x="64.07" y="61.19" width="2.14" height="11.96"/><path class="cls-1" d="M146.94,128h-.35c-4.31-.16-7.13-3-9.18-5.11-6.6-6.68-7.11-15.42-7.3-18.71h0c-.21-3.82-.38-6.83,1.69-9.54a11.29,11.29,0,0,1,11.43-3.69c5,1.31,7,5.93,9.88,12.32,3,6.78,6.66,15.1,2.46,20.62A11,11,0,0,1,146.94,128Zm-14.69-23.94c.2,3.36.66,11.22,6.68,17.33,1.91,1.93,4.28,4.34,7.74,4.46a8.91,8.91,0,0,0,7.2-3.26c3.43-4.51,0-12.19-2.68-18.37S146.68,94.06,142.68,93a9.16,9.16,0,0,0-9.18,2.92c-1.52,2-1.47,4.14-1.25,8.11Z"/><path class="cls-1" d="M177,105.16h-.35c-3.88-.13-6.43-2.71-8.29-4.59-5.94-6-6.4-13.87-6.57-16.83h0c-.19-3.44-.35-6.17,1.54-8.62a10.23,10.23,0,0,1,10.35-3.34c4.53,1.19,6.47,5.58,8.93,11.13,2.67,6,6,13.53,2.18,18.54A10,10,0,0,1,177,105.16ZM163.9,83.61c.18,3,.58,10,5.95,15.44,1.79,1.81,3.81,3.85,6.85,4a7.92,7.92,0,0,0,6.36-2.87c3-4,0-10.86-2.44-16.37s-4-9-7.52-9.93a8.11,8.11,0,0,0-8.1,2.58c-1.34,1.74-1.3,3.66-1.1,7.19Z"/><path class="cls-1" d="M45.63,175.38h-.07A11.69,11.69,0,0,1,38.9,173a18.83,18.83,0,0,1-6.63-8.52c-2.67-6-2.92-11.81-.73-16.37a9.87,9.87,0,0,1,4.15-4.71c4.08-2.16,8.62-.07,10.32.71a18.51,18.51,0,0,1,8,7.56,19.77,19.77,0,0,1,3.3,9.73h0a14,14,0,0,1-.6,5.35,12.69,12.69,0,0,1-3.82,5.82A11.25,11.25,0,0,1,45.63,175.38Zm-6-30.79a6.27,6.27,0,0,0-3,.7A7.79,7.79,0,0,0,33.47,149c-1.91,4-1.65,9.14.74,14.53a17,17,0,0,0,5.89,7.66,9.72,9.72,0,0,0,5.48,2,9.25,9.25,0,0,0,5.92-2.33,10.34,10.34,0,0,0,3.16-4.84,12,12,0,0,0,.5-4.58,17.6,17.6,0,0,0-3-8.67,16.41,16.41,0,0,0-7.08-6.77A13.58,13.58,0,0,0,39.67,144.59Z"/><path class="cls-1" d="M84.47,69.82a1,1,0,0,1-.39-.07L64.75,62.19a1.07,1.07,0,0,1-.67-.86,1.09,1.09,0,0,1,.43-1l52.8-38.38a1.12,1.12,0,0,1,.87-.18L141,27.08a1.07,1.07,0,0,1,.38,1.91L85.1,69.62A1,1,0,0,1,84.47,69.82ZM67.36,60.91l17,6.63,53.91-38.91-20-4.67Z"/><polygon class="cls-2" points="217.26 119.72 237.44 144.74 152.16 217.5 129.44 195.29 129.44 188.91 129.78 188.64 217.26 119.72"/><path class="cls-1" d="M213.44,91.38l3.83,28.34-4.17-1.45a6.5,6.5,0,0,1-1.37-2.72,3.7,3.7,0,0,1,.18-2.9c.05-.07.09-.14.15-.21l1.1-.86.28-.12V91.38Z"/><path class="cls-3" d="M217.27,119.72l-87.48,68.92-.35-.44-1.39-10.26,84-65.5c-.06.07-.1.14-.15.21a3.7,3.7,0,0,0-.18,2.9,6.5,6.5,0,0,0,1.37,2.72Z"/><path class="cls-2" d="M213.44,92.08v19.28l-.28.22a2.86,2.86,0,0,0-1.1.86l-84,65.5-2.44-18.08L213.16,91.6Z"/><path class="cls-2" d="M184.71,42.94,213.16,91.6l-87.55,68.26v18.88h-.23v-20L96.5,109.37l0,0,87.11-65.84.35-.77.64.29Zm-4.86,60c3.17-4.16.27-10.73-2.13-16.15-2.26-5.11-3.88-8.77-7.62-9.75a8.47,8.47,0,0,0-8.53,2.74c-1.5,2-1.41,4.13-1.22,7.31.16,2.77.56,9.63,5.79,14.94,1.68,1.71,3.8,3.85,7,4A8.26,8.26,0,0,0,179.85,102.91Zm-27,20.78c3.54-4.65.29-12-2.39-18-2.52-5.71-4.33-9.8-8.51-10.89a9.45,9.45,0,0,0-9.53,3.06c-1.67,2.18-1.57,4.61-1.36,8.17.18,3.09.62,10.76,6.47,16.68,1.88,1.91,4.24,4.3,7.83,4.43A9.29,9.29,0,0,0,152.84,123.69Z"/><path class="cls-2" d="M213.16,111.58l-1.1.86A2.86,2.86,0,0,1,213.16,111.58Z"/><path class="cls-2" d="M183.92,42.74l-.35.77L96.46,109.35l-70.33-33,87.1-65.83Zm-44,4V35.65l-21.13-4.92L69.92,66.26V77.33l17.89,7Z"/><path class="cls-3" d="M177.72,86.76c2.4,5.42,5.3,12,2.13,16.15a8.26,8.26,0,0,1-6.7,3c-3.21-.11-5.33-2.25-7-4-5.23-5.31-5.63-12.17-5.79-14.94-.19-3.18-.28-5.36,1.22-7.31A8.47,8.47,0,0,1,170.1,77C173.84,78,175.46,81.65,177.72,86.76Zm-1.6,13.41a3.37,3.37,0,1,0-3.37,3.37A3.37,3.37,0,0,0,176.12,100.17Z"/><circle class="cls-4" cx="172.75" cy="100.17" r="3.37"/><path class="cls-3" d="M150.45,105.65c2.68,6,5.93,13.39,2.39,18a9.29,9.29,0,0,1-7.49,3.41c-3.59-.13-5.95-2.52-7.83-4.43-5.85-5.92-6.29-13.59-6.47-16.68-.21-3.56-.31-6,1.36-8.17a9.45,9.45,0,0,1,9.53-3.06C146.12,95.85,147.93,99.94,150.45,105.65Zm1.81,12.23a3.37,3.37,0,1,0-3.37,3.36A3.37,3.37,0,0,0,152.26,117.88Z"/><polygon class="cls-2" points="152.16 217.5 129.44 201.87 129.44 195.29 152.16 217.5"/><path class="cls-4" d="M148.89,114.51a3.37,3.37,0,1,1-3.36,3.37A3.37,3.37,0,0,1,148.89,114.51Z"/><polygon class="cls-2" points="139.91 35.65 139.91 46.72 101 63.74 139.91 35.65"/><polygon class="cls-5" points="139.91 35.65 101 63.74 83.28 71.49 69.92 66.26 118.78 30.73 139.91 35.65"/><polygon class="cls-2" points="139.91 46.72 87.81 84.33 87.81 73.26 101 63.74 139.91 46.72"/><path class="cls-2" d="M129.44,188.2l.35.44-.35.27v13L94.88,180.64c.09-.45.17-.84.23-1.16.68-3.61.47-6.27.09-11.06a79.79,79.79,0,0,0-2.64-15,77.16,77.16,0,0,0-5.1-13.77l37.92,39.07h.23v1.2a3,3,0,0,0-1.53,1.2,3.67,3.67,0,0,0-.17,2.89,6.33,6.33,0,0,0,1.36,2.72Z"/><path class="cls-3" d="M128.05,177.94l1.39,10.26-4.17-1.45a6.33,6.33,0,0,1-1.36-2.72,3.67,3.67,0,0,1,.17-2.89,3,3,0,0,1,1.53-1.2v-.1Z"/><polygon class="cls-2" points="125.61 159.86 128.04 177.94 125.61 179.84 125.61 178.74 125.61 159.86"/><path class="cls-2" d="M96.46,109.35l0,0,28.88,49.38v20L87.46,139.67a63.38,63.38,0,0,0-10.73-15.59A58.85,58.85,0,0,0,59.62,111L26.07,76.4l.06-.05Z"/><polygon class="cls-5" points="101 63.74 87.81 73.26 83.28 71.49 101 63.74"/><path class="cls-3" d="M95.2,168.42c.38,4.79.59,7.45-.09,11.06-.06.32-.14.71-.23,1.16a25.19,25.19,0,0,1-17.64,19.52c-10.67,3.62-20.37.53-23.49-.51-11-3.67-17.19-11-24.34-19.4a77.91,77.91,0,0,1-14.72-24.52c-4.93-13.54-4.12-23.72-3.92-25.87.33-3.51.57-5.89,1.87-8.85a25,25,0,0,1,11.53-11.73,34.38,34.38,0,0,1,8.13-3.08c8.22-1.87,14.84.19,19.92,1.79a51.65,51.65,0,0,1,7.4,3l27.84,28.69a77.16,77.16,0,0,1,5.1,13.77A79.79,79.79,0,0,1,95.2,168.42ZM85.92,181a28.22,28.22,0,0,0,.26-7.15,66.21,66.21,0,0,0-3.83-19.4c-3.59-9.71-8.62-15.9-13.28-21.62-4.78-5.87-7.88-9.68-13.53-13.36a39.4,39.4,0,0,0-19.66-6.89c-4.88-.27-10.42-.57-15.06,2.8-6.39,4.65-7,13.31-7.41,18.64-1.27,17.42,7.73,31,11.75,37,6.06,9.15,12.62,14.5,18.63,19.41a36.06,36.06,0,0,0,7.92,5.1A30.15,30.15,0,0,0,66,198.63a20.8,20.8,0,0,0,9.7-2.3A20.07,20.07,0,0,0,82.6,190,21.67,21.67,0,0,0,85.92,181Z"/><polygon class="cls-2" points="87.81 73.26 87.81 84.33 69.92 77.33 83.28 71.49 87.81 73.26"/><path class="cls-3" d="M87.46,139.67,59.62,111a58.85,58.85,0,0,1,17.11,13.1A63.38,63.38,0,0,1,87.46,139.67Z"/><path class="cls-2" d="M86.18,173.86a28.22,28.22,0,0,1-.26,7.15A21.67,21.67,0,0,1,82.6,190a20.07,20.07,0,0,1-6.89,6.38,20.8,20.8,0,0,1-9.7,2.3,30.15,30.15,0,0,1-14.3-3.07,36.06,36.06,0,0,1-7.92-5.1c-6-4.91-12.57-10.26-18.63-19.41-4-6.05-13-19.6-11.75-37,.39-5.33,1-14,7.41-18.64,4.64-3.37,10.18-3.07,15.06-2.8a39.4,39.4,0,0,1,19.66,6.89c5.65,3.68,8.75,7.49,13.53,13.36,4.66,5.72,9.69,11.91,13.28,21.62A66.21,66.21,0,0,1,86.18,173.86Zm-25-10.21a12.21,12.21,0,0,0,.51-4.6,17.33,17.33,0,0,0-2.9-8.51,16.23,16.23,0,0,0-7-6.64c-1.49-.68-5.34-2.44-8.68-.68a8.12,8.12,0,0,0-3.4,3.92c-3,6.16.08,13,.68,14.3a16.63,16.63,0,0,0,5.79,7.49,9.89,9.89,0,0,0,5.61,2,9.52,9.52,0,0,0,6.13-2.38A10.59,10.59,0,0,0,61.16,163.65Z"/><polygon class="cls-2" points="83.28 71.49 69.92 77.33 69.92 66.26 83.28 71.49"/><path class="cls-2" d="M61.67,159.05a12.21,12.21,0,0,1-.51,4.6,10.59,10.59,0,0,1-3.24,4.94A9.52,9.52,0,0,1,51.79,171a9.89,9.89,0,0,1-5.61-2,16.63,16.63,0,0,1-5.79-7.49c-.6-1.33-3.65-8.14-.68-14.3a8.12,8.12,0,0,1,3.4-3.92c3.34-1.76,7.19,0,8.68.68a16.23,16.23,0,0,1,7,6.64A17.33,17.33,0,0,1,61.67,159.05Zm-8.51.34c1.63-1.36,1-4,.85-4.76a5.66,5.66,0,0,0-2.22-3.58c-.39-.26-2.41-1.58-4.08-.68a3.71,3.71,0,0,0-1.62,2.39,6,6,0,0,0,.6,4.59,5.38,5.38,0,0,0,3.91,2.73A3.6,3.6,0,0,0,53.16,159.39Z"/><path class="cls-2" d="M26.07,76.4,59.62,111a51.65,51.65,0,0,0-7.4-3c-5.08-1.6-11.7-3.66-19.92-1.79a34.38,34.38,0,0,0-8.13,3.08l-.42-.78,1.47-21.89.7-.41V76.51Z"/><path class="cls-3" d="M54,154.63c.16.72.78,3.4-.85,4.76a3.6,3.6,0,0,1-2.56.69,5.38,5.38,0,0,1-3.91-2.73,6,6,0,0,1-.6-4.59,3.71,3.71,0,0,1,1.62-2.39c1.67-.9,3.69.42,4.08.68A5.66,5.66,0,0,1,54,154.63Z"/><polygon class="cls-2" points="26.13 76.35 26.07 76.4 25.91 76.25 26.13 76.35"/><polygon class="cls-2" points="25.91 76.51 25.91 86.2 25.21 86.61 25.91 76.25 25.91 76.51"/><polygon class="cls-2" points="25.21 86.61 23.75 108.5 23.75 87.48 25.21 86.61"/><polyline class="cls-6" points="152.16 217.5 237.44 144.74 217.26 119.72 129.78 188.64 129.44 188.91 129.44 195.29"/><path class="cls-6" d="M213.44,91.38v20.08l-.28.12a2.86,2.86,0,0,0-1.1.86c-.06.07-.1.14-.15.21a3.7,3.7,0,0,0-.18,2.9,6.5,6.5,0,0,0,1.37,2.72l4.17,1.45"/><polyline class="cls-7" points="25.91 76.25 25.91 76.51 25.91 86.2 25.21 86.61 23.75 87.48 23.75 108.5"/><path class="cls-8" d="M53.16,159.39c1.63-1.36,1-4,.85-4.76a5.66,5.66,0,0,0-2.22-3.58c-.39-.26-2.41-1.58-4.08-.68a3.71,3.71,0,0,0-1.62,2.39,6,6,0,0,0,.6,4.59,5.38,5.38,0,0,0,3.91,2.73A3.6,3.6,0,0,0,53.16,159.39Z"/><polyline class="cls-6" points="213.44 91.38 213.16 91.6 125.61 159.86"/><path class="cls-6" d="M129.44,188.2l-4.17-1.45a6.33,6.33,0,0,1-1.36-2.72,3.67,3.67,0,0,1,.17-2.89,3,3,0,0,1,1.53-1.2V159.86"/><polyline class="cls-6" points="213.44 111.36 213.16 111.58 212.06 112.44 128.04 177.94 125.61 179.84"/><line class="cls-6" x1="183.57" y1="43.51" x2="96.46" y2="109.35"/><polyline class="cls-6" points="25.91 76.25 26.13 76.35 96.45 109.35 96.5 109.37 125.38 158.75 125.38 178.74"/><path class="cls-7" d="M24.17,109.28A25,25,0,0,0,12.64,121c-1.3,3-1.54,5.34-1.87,8.85-.2,2.15-1,12.33,3.92,25.87a77.91,77.91,0,0,0,14.72,24.52c7.15,8.43,13.34,15.73,24.34,19.4,3.12,1,12.82,4.13,23.49.51a25.19,25.19,0,0,0,17.64-19.52c.09-.45.17-.84.23-1.16.68-3.61.47-6.27.09-11.06a79.79,79.79,0,0,0-2.64-15,77.16,77.16,0,0,0-5.1-13.77,63.38,63.38,0,0,0-10.73-15.59A58.85,58.85,0,0,0,59.62,111a51.65,51.65,0,0,0-7.4-3c-5.08-1.6-11.7-3.66-19.92-1.79A34.38,34.38,0,0,0,24.17,109.28Z"/><path class="cls-7" d="M86.18,173.86a66.21,66.21,0,0,0-3.83-19.4c-3.59-9.71-8.62-15.9-13.28-21.62-4.78-5.87-7.88-9.68-13.53-13.36a39.4,39.4,0,0,0-19.66-6.89c-4.88-.27-10.42-.57-15.06,2.8-6.39,4.65-7,13.31-7.41,18.64-1.27,17.42,7.73,31,11.75,37,6.06,9.15,12.62,14.5,18.63,19.41a36.06,36.06,0,0,0,7.92,5.1A30.15,30.15,0,0,0,66,198.63a20.8,20.8,0,0,0,9.7-2.3A20.07,20.07,0,0,0,82.6,190,21.67,21.67,0,0,0,85.92,181,28.22,28.22,0,0,0,86.18,173.86Z"/><polyline class="cls-6" points="184.56 42.69 184.71 42.94 213.16 91.6 213.44 92.08"/><line class="cls-6" x1="94.88" y1="180.64" x2="129.44" y2="201.87"/><polyline class="cls-7" points="129.44 195.29 129.44 201.87 152.16 217.5"/><polyline class="cls-6" points="113.22 10.52 183.91 42.74 184.56 43.03"/><polyline class="cls-6" points="113.22 10.52 26.13 76.35 26.07 76.4 25.91 76.51"/><polyline class="cls-6" points="69.92 77.33 87.81 84.33 139.91 46.72"/><line class="cls-6" x1="139.92" y1="35.65" x2="139.92" y2="46.72"/><line class="cls-6" x1="87.81" y1="73.26" x2="87.81" y2="84.33"/><line class="cls-6" x1="69.92" y1="66.26" x2="69.92" y2="77.33"/><path class="cls-7" d="M131.05,106c.18,3.09.62,10.76,6.47,16.68,1.88,1.91,4.24,4.3,7.83,4.43a9.29,9.29,0,0,0,7.49-3.41c3.54-4.65.29-12-2.39-18-2.52-5.71-4.33-9.8-8.51-10.89a9.45,9.45,0,0,0-9.53,3.06C130.74,100,130.84,102.43,131.05,106Z"/><path class="cls-7" d="M160.35,87.06c.16,2.77.56,9.63,5.79,14.94,1.68,1.71,3.8,3.85,7,4a8.26,8.26,0,0,0,6.7-3c3.17-4.16.27-10.73-2.13-16.15-2.26-5.11-3.88-8.77-7.62-9.75a8.47,8.47,0,0,0-8.53,2.74C160.07,81.7,160.16,83.88,160.35,87.06Z"/><path class="cls-7" d="M61.67,159.05a17.33,17.33,0,0,0-2.9-8.51,16.23,16.23,0,0,0-7-6.64c-1.49-.68-5.34-2.44-8.68-.68a8.12,8.12,0,0,0-3.4,3.92c-3,6.16.08,13,.68,14.3a16.63,16.63,0,0,0,5.79,7.49,9.89,9.89,0,0,0,5.61,2,9.52,9.52,0,0,0,6.13-2.38,10.59,10.59,0,0,0,3.24-4.94A12.21,12.21,0,0,0,61.67,159.05Z"/><polygon class="cls-9" points="69.92 66.26 83.28 71.49 87.81 73.26 101 63.74 139.91 35.65 118.78 30.73 69.92 66.26"/></g></g></svg>